<?xml version="1.0" encoding="UTF-8" standalone="no"?>
<svg
   xmlns:dc="http://purl.org/dc/elements/1.1/"
   xmlns:cc="http://creativecommons.org/ns#"
   xmlns:rdf="http://www.w3.org/1999/02/22-rdf-syntax-ns#"
   xmlns:svg="http://www.w3.org/2000/svg"
   xmlns="http://www.w3.org/2000/svg"
   xmlns:xlink="http://www.w3.org/1999/xlink"
   xmlns:sodipodi="http://sodipodi.sourceforge.net/DTD/sodipodi-0.dtd"
   xmlns:inkscape="http://www.inkscape.org/namespaces/inkscape"
   version="1.1"
   id="Calque_1"
   x="0px"
   y="0px"
   viewBox="0 0 80 80"
   xml:space="preserve"
   sodipodi:docname="asaisir.svg"
   width="80"
   height="80"
   inkscape:version="1.0.2 (e86c870879, 2021-01-15)"><metadata
   id="metadata47"><rdf:RDF><cc:Work
       rdf:about=""><dc:format>image/svg+xml</dc:format><dc:type
         rdf:resource="http://purl.org/dc/dcmitype/StillImage" /><dc:title></dc:title></cc:Work></rdf:RDF></metadata><defs
   id="defs45" /><sodipodi:namedview
   pagecolor="#ffffff"
   bordercolor="#666666"
   borderopacity="1"
   objecttolerance="10"
   gridtolerance="10"
   guidetolerance="10"
   inkscape:pageopacity="0"
   inkscape:pageshadow="2"
   inkscape:window-width="1920"
   inkscape:window-height="1009"
   id="namedview43"
   showgrid="false"
   inkscape:zoom="3.2575"
   inkscape:cx="51.901769"
   inkscape:cy="100"
   inkscape:window-x="-8"
   inkscape:window-y="-8"
   inkscape:window-maximized="1"
   inkscape:current-layer="Calque_1" />
<style
   type="text/css"
   id="style2">
	.st0{clip-path:url(#SVGID_2_);}
	.st1{clip-path:url(#SVGID_4_);fill-rule:evenodd;clip-rule:evenodd;fill:#2FB6B4;}
	.st2{clip-path:url(#SVGID_4_);}
</style>
<g
   id="g40"
   transform="translate(0.92095165,1.5349194)">
	<g
   id="g38">
		<defs
   id="defs5">
			<rect
   id="SVGID_1_"
   width="77.900002"
   height="77.599998"
   x="0"
   y="0" />
		</defs>
		<clipPath
   id="SVGID_2_">
			<use
   xlink:href="#SVGID_1_"
   style="overflow:visible"
   id="use7"
   x="0"
   y="0"
   width="100%"
   height="100%" />
		</clipPath>
		<g
   class="st0"
   clip-path="url(#SVGID_2_)"
   id="g36">
			<defs
   id="defs11">
				<rect
   id="SVGID_3_"
   y="0"
   width="77.900002"
   height="77.599998"
   x="0" />
			</defs>
			<clipPath
   id="SVGID_4_">
				<use
   xlink:href="#SVGID_3_"
   style="overflow:visible"
   id="use13"
   x="0"
   y="0"
   width="100%"
   height="100%" />
			</clipPath>
			<path
   class="st1"
   d="m 41.7,0 c 20,0 36.2,16.2 36.2,36.2 0,20 -16.2,36.2 -36.2,36.2 C 21.7,72.4 5.5,56.2 5.5,36.2 5.4,16.2 21.6,0 41.7,0"
   clip-path="url(#SVGID_4_)"
   id="path16" />
			<path
   class="st2"
   d="m 43.4,63 c -3.2,-2.6 -6.8,-4 -10.7,-4.5 -3.2,-0.4 -6.3,-0.4 -9.5,0.2 -1.1,0.2 -1.5,-0.1 -1.8,-1.1 -1,-3.5 -2.1,-7 -3.3,-10.4 -0.3,-1 0,-1.3 0.8,-1.7 3.9,-1.8 7.4,-4.2 10.2,-7.5 1.9,-2.2 3.2,-4.7 4.1,-7.6 4.8,10.4 8.1,21.2 10.2,32.6"
   clip-path="url(#SVGID_4_)"
   id="path18" />
			<path
   class="st2"
   d="m 2.8,53.5 c 0.1,-1.9 0.6,-2.9 2.2,-3.4 3.3,-1 6.6,-2.2 9.9,-3.3 0.9,-0.3 1.3,-0.3 1.6,0.7 1.1,3.8 2.3,7.5 3.5,11.3 0.3,0.9 0.1,1.2 -0.8,1.5 -3.5,0.9 -6.9,1.9 -10.3,2.9 C 7.5,63.6 6.4,63.2 5.7,62 4.1,59.2 3.5,56.1 2.8,53.5"
   clip-path="url(#SVGID_4_)"
   id="path20" />
			<path
   class="st2"
   d="m 18.6,61.8 c -1.1,1.8 -0.3,2.9 0.5,4 1.4,1.9 3,3.6 4.5,5.4 0.3,0.4 0.7,0.8 1.2,1 0.8,0.4 1.7,0.5 1.4,1.8 -0.3,1.5 -0.8,2.9 -2.3,3.6 -0.5,0.2 -0.9,-0.2 -1.2,-0.5 -2.9,-2.8 -6,-5.3 -7.7,-9.1 -0.3,-0.7 -0.8,-1.1 -1.7,-0.9 -1.9,0.4 -1.6,-1.3 -2,-2.2 -0.5,-1.2 0.5,-1.1 1.1,-1.3 2,-0.6 3.9,-1.1 6.2,-1.8"
   clip-path="url(#SVGID_4_)"
   id="path22" />
			<path
   class="st2"
   d="m 46.7,63.2 c 0,0.6 0,0.9 0,1.2 0,0.5 -0.1,1 -0.8,0.9 -0.5,-0.1 -1,-0.2 -1,-0.9 -0.1,-5 -1.7,-9.8 -3.1,-14.5 C 40,43.6 38,37.3 35.3,31.4 c -0.4,-1 -0.8,-2 -1.6,-2.8 -0.7,-0.7 -0.1,-1.1 0.2,-1.5 0.6,-0.6 0.9,0 1.2,0.4 1.4,1.9 2.3,4 3.1,6.2 3.6,9.2 6.6,18.5 8.2,28.3 0.2,0.4 0.3,0.9 0.3,1.2"
   clip-path="url(#SVGID_4_)"
   id="path24" />
			<path
   class="st2"
   d="m 47.3,46.6 c -0.1,0.8 -0.2,1.4 -0.6,1.9 -0.4,0.5 -0.8,1 -1.5,0.9 -0.6,-0.1 -0.5,-0.8 -0.6,-1.3 -0.7,-2.1 -1.3,-4.3 -2,-6.4 -0.4,-1.1 0,-1.2 0.9,-1.2 0.9,0 1.8,0.4 2.2,1.2 0.8,1.5 1.1,3.3 1.6,4.9"
   clip-path="url(#SVGID_4_)"
   id="path26" />
			<path
   class="st2"
   d="M 4.6,63.1 C 3.4,63.5 2.7,62.9 2.2,62.1 1,59.8 0.2,57.4 0,54.8 0,54.4 0,54 0.1,53.6 c 0.1,-0.5 0.5,-0.9 1,-0.9 0.5,0.1 0.3,0.7 0.4,1 0.6,3.2 1.5,6.3 3.1,9.4"
   clip-path="url(#SVGID_4_)"
   id="path28" />
			<path
   class="st2"
   d="m 55.8,41.8 c -1.3,0.2 -1.9,0 -2.1,-0.7 -0.2,-0.7 0.3,-1.2 0.9,-1.4 2.8,-0.8 5.6,-1.6 8.4,-2.4 0.6,-0.2 1.1,0.2 1.3,0.7 0.3,0.7 0,1.3 -0.7,1.5 -2.8,0.9 -5.6,1.6 -7.8,2.3"
   clip-path="url(#SVGID_4_)"
   id="path30" />
			<path
   class="st2"
   d="m 58.1,29.5 c 0.1,0.9 -6,7.1 -6.9,7.1 -0.4,0 -0.7,-0.2 -0.9,-0.6 -0.3,-0.6 -0.1,-1.1 0.3,-1.5 1.8,-1.8 3.6,-3.7 5.4,-5.5 0.8,-0.8 1.6,-0.5 2.1,0.5"
   clip-path="url(#SVGID_4_)"
   id="path32" />
			<path
   class="st2"
   d="m 55.2,46.1 c 2.3,0.6 4.8,1.2 7.3,1.9 0.7,0.2 1,0.7 0.9,1.4 -0.2,0.8 -0.8,1 -1.4,0.8 -2.5,-0.6 -5,-1.2 -7.5,-1.9 -0.7,-0.2 -1.1,-0.6 -1,-1.3 0.1,-0.9 0.7,-1 1.7,-0.9"
   clip-path="url(#SVGID_4_)"
   id="path34" />
		</g>
	</g>
</g>
</svg>
