<?xml version="1.0" encoding="UTF-8" standalone="no"?>
<svg
   xmlns:dc="http://purl.org/dc/elements/1.1/"
   xmlns:cc="http://creativecommons.org/ns#"
   xmlns:rdf="http://www.w3.org/1999/02/22-rdf-syntax-ns#"
   xmlns:svg="http://www.w3.org/2000/svg"
   xmlns="http://www.w3.org/2000/svg"
   xmlns:xlink="http://www.w3.org/1999/xlink"
   xmlns:sodipodi="http://sodipodi.sourceforge.net/DTD/sodipodi-0.dtd"
   xmlns:inkscape="http://www.inkscape.org/namespaces/inkscape"
   version="1.1"
   id="Calque_1"
   x="0px"
   y="0px"
   viewBox="0 0 80 80"
   xml:space="preserve"
   sodipodi:docname="Coeur.svg"
   width="80"
   height="80"
   inkscape:version="1.0.2 (e86c870879, 2021-01-15)"><metadata
   id="metadata52"><rdf:RDF><cc:Work
       rdf:about=""><dc:format>image/svg+xml</dc:format><dc:type
         rdf:resource="http://purl.org/dc/dcmitype/StillImage" /><dc:title></dc:title></cc:Work></rdf:RDF></metadata><defs
   id="defs50" /><sodipodi:namedview
   pagecolor="#ffffff"
   bordercolor="#666666"
   borderopacity="1"
   objecttolerance="10"
   gridtolerance="10"
   guidetolerance="10"
   inkscape:pageopacity="0"
   inkscape:pageshadow="2"
   inkscape:window-width="1920"
   inkscape:window-height="1009"
   id="namedview48"
   showgrid="false"
   inkscape:zoom="3.2575"
   inkscape:cx="72.986941"
   inkscape:cy="100"
   inkscape:window-x="-8"
   inkscape:window-y="-8"
   inkscape:window-maximized="1"
   inkscape:current-layer="Calque_1" />
<style
   type="text/css"
   id="style2">
	.st0{clip-path:url(#SVGID_2_);}
	.st1{clip-path:url(#SVGID_4_);fill:url(#SVGID_5_);}
	.st2{clip-path:url(#SVGID_7_);fill-rule:evenodd;clip-rule:evenodd;fill:#2FB6B4;}
	.st3{clip-path:url(#SVGID_7_);}
</style>
<g
   id="g45"
   transform="translate(1.8419033,0.61396777)">
	<g
   id="g43">
		<defs
   id="defs5">
			<rect
   id="SVGID_1_"
   width="77"
   height="78.699997"
   x="0"
   y="0" />
		</defs>
		<clipPath
   id="SVGID_2_">
			<use
   xlink:href="#SVGID_1_"
   style="overflow:visible"
   id="use7"
   x="0"
   y="0"
   width="100%"
   height="100%" />
		</clipPath>
		<g
   class="st0"
   clip-path="url(#SVGID_2_)"
   id="g25">
			<defs
   id="defs11">
				<path
   id="SVGID_3_"
   d="m 42.1,23.8 c -2.7,2.5 -5.4,4.9 -8.1,7.4 -1.1,1 -2.2,2 -3.3,3.1 -0.9,0.8 -1.8,1.6 -2.7,2.4 -0.8,0.7 -1.6,1.5 -2.5,2.3 -0.4,0.4 -0.8,0.7 -1.2,1.1 -0.2,0.2 -0.2,0.3 0.1,0.3 h 4 c 0.7,0 1.1,0.4 1.1,1.1 0,1 0,2.1 0,3.1 3.5,0.8 6.6,3.2 7.9,6.5 0.2,0.5 0.4,1.1 0.5,1.7 0.1,0.6 0.1,1.2 0.2,1.7 0,0.8 -0.1,1.5 -0.2,2.2 2,0 4,0 6,0 H 58.3 V 41.5 c 0,-0.8 0.4,-1.2 1.1,-1.2 h 4 c 0.2,0 0.3,-0.1 0.1,-0.3 C 62.7,39.2 61.8,38.4 60.9,37.7 60.3,37.1 59.7,36.6 59,36 58.4,35.5 57.9,35 57.3,34.5 56.9,34.1 56.5,33.8 56.5,33.2 v -9.5 c -1.8,0 -3.6,0 -5.3,0 0,1 0,1.9 0,2.9 0,0.9 -1,1.5 -1.7,0.8 -1.9,-1.7 -3.8,-3.5 -5.7,-5.2 z" />
			</defs>
			<clipPath
   id="SVGID_4_">
				<use
   xlink:href="#SVGID_3_"
   style="overflow:visible"
   id="use13"
   x="0"
   y="0"
   width="100%"
   height="100%" />
			</clipPath>
			
				<linearGradient
   id="SVGID_5_"
   gradientUnits="userSpaceOnUse"
   x1="0"
   y1="-1.7693"
   x2="1"
   y2="-1.7693"
   gradientTransform="matrix(44.5028,0,0,-44.5028,19.108,-39.3494)">
				<stop
   offset="0"
   style="stop-color:#069697"
   id="stop16" />
				<stop
   offset="0.4802"
   style="stop-color:#069697"
   id="stop18" />
				<stop
   offset="1"
   style="stop-color:#2A565F"
   id="stop20" />
			</linearGradient>
			<rect
   x="24.1"
   y="22.1"
   class="st1"
   width="39.599998"
   height="34.5"
   clip-path="url(#SVGID_4_)"
   id="rect23"
   style="fill:url(#SVGID_5_)" />
		</g>
		<g
   class="st0"
   clip-path="url(#SVGID_2_)"
   id="g41">
			<defs
   id="defs28">
				<rect
   id="SVGID_6_"
   y="0"
   width="77"
   height="78.699997"
   x="0" />
			</defs>
			<clipPath
   id="SVGID_7_">
				<use
   xlink:href="#SVGID_6_"
   style="overflow:visible"
   id="use30"
   x="0"
   y="0"
   width="100%"
   height="100%" />
			</clipPath>
			<path
   class="st2"
   d="M 40.8,0 C 20.8,0 4.5,16.2 4.5,36.2 c 0,2.6 0.3,5.1 0.8,7.5 0.2,1.1 0.5,2.2 0.8,3.3 3.2,10 10.4,18.1 19.9,22.3 1.1,0.5 2.1,0.9 3.3,1.3 3.6,1.2 7.5,1.9 11.5,1.9 C 60.8,72.5 77,56.3 77,36.3 77,16.3 60.8,0 40.8,0 m 18.6,40.4 c -0.8,0 -1.1,0.4 -1.1,1.2 V 56.7 H 43.9 c -2,0 -4,0 -6,0 C 38,56 38.1,55.2 38.1,54.5 38,53.9 38,53.3 37.9,52.8 37.8,52.2 37.7,51.7 37.4,51.1 36.1,47.8 33,45.4 29.5,44.7 c 0,-1 0,-2.1 0,-3.1 0,-0.7 -0.4,-1.1 -1.1,-1.1 h -4 c -0.3,0 -0.3,-0.1 -0.1,-0.3 0.4,-0.3 0.8,-0.7 1.2,-1 0.8,-0.8 1.6,-1.5 2.5,-2.3 0.9,-0.8 1.8,-1.6 2.6,-2.4 1.1,-1 2.2,-2 3.3,-3.1 2.7,-2.5 5.4,-4.9 8.1,-7.4 l 1.9,-1.7 c 1.9,1.8 3.8,3.5 5.7,5.2 0.7,0.7 1.7,0.2 1.7,-0.8 0,-1 0,-1.9 0,-2.9 1.8,0 3.5,0 5.3,0 v 9.5 c 0,0.6 0.4,0.9 0.8,1.3 0.6,0.5 1.1,1 1.7,1.5 0.6,0.6 1.2,1.1 1.8,1.7 0.9,0.8 1.7,1.6 2.6,2.3 0.2,0.2 0.1,0.3 -0.1,0.3 z"
   clip-path="url(#SVGID_7_)"
   id="path33" />
			<path
   class="st3"
   d="m 38.1,54.4 c 0,0.8 -0.1,1.5 -0.2,2.2 -0.1,0.7 -0.3,1.3 -0.5,1.9 -0.4,1.2 -1,2.4 -1.7,3.6 -1.8,3.1 -4,5.8 -6.5,8.4 -1,1.1 -2.1,2.1 -3.1,3.1 -1.6,1.5 -3.3,2.9 -5,4.3 -0.3,0.3 -0.6,0.5 -1,0.6 -0.7,0.2 -1.5,-0.1 -1.9,-0.8 -0.4,-0.8 -0.2,-1.5 0.5,-2.1 2.6,-2 5,-4.2 7.3,-6.5 0.5,-0.5 1,-1 1.5,-1.5 2.6,-2.8 4.9,-5.7 6.5,-9.2 0.3,-0.6 0.5,-1.3 0.7,-1.9 0.3,-1.2 0.4,-2.4 0.2,-3.6 -0.5,-2.3 -2.8,-4.5 -5.2,-5.2 -0.4,-0.1 -0.7,-0.2 -1.1,-0.2 -0.3,0 -0.6,-0.1 -0.9,-0.1 -2.4,-0.1 -4.5,0.9 -6.4,2.4 -0.9,0.7 -1.7,1.5 -2.5,2.4 -0.2,0.2 -0.4,0.6 -0.8,0.4 -0.4,-0.2 -0.3,-0.5 -0.3,-0.8 0.1,-1.5 0.7,-2.8 1.7,-3.9 2.4,-2.7 5.4,-3.8 8.3,-3.7 0.7,0 1.4,0.1 2,0.2 3.5,0.8 6.6,3.2 7.9,6.4 0.2,0.5 0.4,1.1 0.5,1.7 -0.1,0.8 0,1.4 0,1.9"
   clip-path="url(#SVGID_7_)"
   id="path35" />
			<path
   class="st3"
   d="m 10.9,42.3 c 2.3,0 4.7,0.9 6.5,2.9 0.7,0.8 1.1,1.6 1.1,2.7 0,0.2 0,0.5 -0.3,0.6 -0.3,0.1 -0.5,0 -0.7,-0.2 -0.8,-0.8 -1.6,-1.3 -2.6,-1.8 -1.8,-0.9 -3.8,-1.3 -5.8,-0.9 -2.9,0.6 -4.5,2.6 -5.4,5.2 -1,2.6 -0.6,5.2 0.5,7.7 1.7,3.7 4.4,6.5 7.3,9.2 1.7,1.6 3.6,3 5.5,4.2 0.6,0.4 1,0.9 0.9,1.7 -0.1,0.7 -0.5,1.1 -1.1,1.3 C 16.3,75.1 15.9,75 15.5,74.7 10.8,71.5 6.4,68 3.1,63.2 1.1,60.3 -0.3,57.1 -0.1,53.4 0.1,48.9 2,45.4 6,43.2 7.5,42.5 9,42.3 10.9,42.3"
   clip-path="url(#SVGID_7_)"
   id="path37" />
			<path
   class="st3"
   d="m 64.9,38.7 c 0,0 -0.1,-0.1 -0.3,-0.2 L 64.4,38.3 C 64.3,38.2 64.2,38.1 64.2,38.1 64.1,38 64.1,38 64,37.9 v 0 c -1.4,-1.3 -2.9,-2.6 -4.3,-3.9 -0.3,-0.3 -1,-0.7 -1.2,-1.1 -0.2,-0.3 0,-1.2 0,-1.5 v -7.9 c 0,-0.8 0,-1.8 -1,-1.8 -2.4,0 -4.8,0 -7.1,0 -1.4,0 -1,1.8 -1,2.7 l -4.7,-4.3 c -0.5,-0.5 -1.1,-0.5 -1.6,0 -4.1,3.9 -8.2,7.6 -12.3,11.4 -1.3,1.2 -2.6,2.4 -3.9,3.6 -0.9,0.8 -1.8,1.7 -2.8,2.5 -0.6,0.6 -1.5,1.1 -1.8,2 -0.3,0.7 -0.1,1.6 0.4,2.1 0.4,0.5 1,0.7 1.6,0.7 1.1,0 2.1,0 3.2,0 0,0.7 0,1.3 0,2 0,1.1 0,2.1 0,3.2 0.3,0 0.6,0 0.9,0.1 0.4,0 0.7,0.1 1.1,0.2 0,-1.1 0,-2.2 0,-3.3 0,-1 0,-2.1 0,-3.1 0,-0.7 -0.4,-1.1 -1.1,-1.1 h -4 c -0.3,0 -0.3,-0.1 -0.1,-0.3 0.4,-0.3 0.8,-0.7 1.1,-1 0.8,-0.8 1.7,-1.5 2.5,-2.3 0.9,-0.8 1.8,-1.6 2.7,-2.4 1.1,-1 2.2,-2 3.3,-3.1 2.7,-2.5 5.4,-4.9 8.1,-7.4 l 1.9,-1.7 c 1.9,1.8 3.8,3.5 5.7,5.2 0.7,0.7 1.7,0.1 1.7,-0.8 0,-0.9 0,-1.9 0,-2.9 1.8,0 3.5,0 5.3,0 v 9.5 c 0,0.6 0.4,0.9 0.8,1.3 0.6,0.5 1.1,1 1.7,1.5 0.6,0.6 1.2,1.1 1.9,1.7 0.8,0.8 1.7,1.6 2.6,2.3 0.2,0.2 0.1,0.3 -0.1,0.3 h -4 c -0.8,0 -1.1,0.4 -1.1,1.1 V 56.5 H 43.9 c -2,0 -4,0 -6,0 -1.1,0 -2.2,0 -3.3,0 -0.2,0.7 -0.4,1.3 -0.7,1.9 h 25.3 c 1.2,0 1,-1.3 1,-2.1 v -14 c 1.1,0 2.2,0 3.3,0 1.9,0 2.7,-2.3 1.4,-3.6"
   clip-path="url(#SVGID_7_)"
   id="path39" />
		</g>
	</g>
</g>
</svg>
