<?xml version="1.0" encoding="UTF-8" standalone="no"?>
<svg
   xmlns:dc="http://purl.org/dc/elements/1.1/"
   xmlns:cc="http://creativecommons.org/ns#"
   xmlns:rdf="http://www.w3.org/1999/02/22-rdf-syntax-ns#"
   xmlns:svg="http://www.w3.org/2000/svg"
   xmlns="http://www.w3.org/2000/svg"
   xmlns:xlink="http://www.w3.org/1999/xlink"
   xmlns:sodipodi="http://sodipodi.sourceforge.net/DTD/sodipodi-0.dtd"
   xmlns:inkscape="http://www.inkscape.org/namespaces/inkscape"
   version="1.1"
   id="Calque_1"
   x="0px"
   y="0px"
   viewBox="0 0 80 80"
   xml:space="preserve"
   sodipodi:docname="exclu.svg"
   width="80"
   height="80"
   inkscape:version="1.0.2 (e86c870879, 2021-01-15)"><metadata
   id="metadata69"><rdf:RDF><cc:Work
       rdf:about=""><dc:format>image/svg+xml</dc:format><dc:type
         rdf:resource="http://purl.org/dc/dcmitype/StillImage" /><dc:title></dc:title></cc:Work></rdf:RDF></metadata><defs
   id="defs67" /><sodipodi:namedview
   pagecolor="#ffffff"
   bordercolor="#666666"
   borderopacity="1"
   objecttolerance="10"
   gridtolerance="10"
   guidetolerance="10"
   inkscape:pageopacity="0"
   inkscape:pageshadow="2"
   inkscape:window-width="1920"
   inkscape:window-height="1009"
   id="namedview65"
   showgrid="false"
   inkscape:zoom="3.2575"
   inkscape:cx="110.13701"
   inkscape:cy="100"
   inkscape:window-x="-8"
   inkscape:window-y="-8"
   inkscape:window-maximized="1"
   inkscape:current-layer="Calque_1" />
<style
   type="text/css"
   id="style2">
	.st0{clip-path:url(#SVGID_2_);}
	.st1{clip-path:url(#SVGID_4_);fill-rule:evenodd;clip-rule:evenodd;fill:#2FB6B4;}
	.st2{clip-path:url(#SVGID_4_);}
	.st3{clip-path:url(#SVGID_4_);fill:#FBF5F3;}
</style>
<g
   id="g62"
   transform="translate(-133.53799,-68.150422)">
	<g
   id="g60">
		<defs
   id="defs5">
			<rect
   id="SVGID_1_"
   x="135.3"
   y="72"
   width="76.800003"
   height="73" />
		</defs>
		<clipPath
   id="SVGID_2_">
			<use
   xlink:href="#SVGID_1_"
   style="overflow:visible"
   id="use7"
   x="0"
   y="0"
   width="100%"
   height="100%" />
		</clipPath>
		<g
   class="st0"
   clip-path="url(#SVGID_2_)"
   id="g58">
			<defs
   id="defs11">
				<rect
   id="SVGID_3_"
   x="135.3"
   y="72"
   width="76.800003"
   height="73" />
			</defs>
			<clipPath
   id="SVGID_4_">
				<use
   xlink:href="#SVGID_3_"
   style="overflow:visible"
   id="use13"
   x="0"
   y="0"
   width="100%"
   height="100%" />
			</clipPath>
			<path
   class="st1"
   d="m 175.9,72 c 20,0 36.2,16.2 36.2,36.2 0,20 -16.2,36.2 -36.2,36.2 -20,0 -36.2,-16.2 -36.2,-36.2 -0.1,-20 16.1,-36.2 36.2,-36.2"
   clip-path="url(#SVGID_4_)"
   id="path16" />
			<path
   class="st2"
   d="m 195.3,110.3 c 2.9,-0.5 5.8,-1 8.8,-1.6 1.6,-0.3 2.5,0.5 2.8,1.9 1.1,6.5 2.3,13 3.4,19.4 0.1,0.4 0.1,0.8 0.2,1.1 0,0.9 -0.5,1.6 -1.4,1.8 -0.6,0.2 -1.3,0.3 -1.9,0.4 -3.5,0.6 -7.1,1.2 -10.6,1.8 -5.4,1 -10.8,1.9 -16.2,2.9 -7,1.2 -13.9,2.4 -20.9,3.7 -3.5,0.6 -7.1,1.2 -10.6,1.9 -1.5,0.3 -3,0.3 -4.4,0.9 -1.2,0 -2.3,0.2 -3.5,0.4 -1.1,0.2 -1.9,-0.5 -2.1,-1.7 -0.6,-3.4 -1.2,-6.8 -1.8,-10.3 -0.6,-3.2 -1.1,-6.4 -1.7,-9.6 -0.4,-2 0.1,-2.6 2.1,-3 2.8,-0.5 5.5,-1 8.3,-1.5 0.4,-0.1 0.8,-0.1 1.2,-0.1 -0.6,0.9 -1.4,1.5 -2.3,2.1 -0.6,0.1 -0.7,0.5 -0.5,1 0.1,0.4 0.5,0.6 0.9,0.4 0.6,-0.2 0.7,-0.6 0.5,-1.1 1,-1.1 2.1,-2.1 3.2,-3 3.7,-0.6 7.5,-1.3 11.2,-1.9 7.8,-1.4 15.7,-2.8 23.5,-4.2 3.5,-0.6 7,-1.3 10.5,-1.9 0.9,0.6 1.8,1.2 2.7,1.8 -0.1,0.6 0.1,0.9 0.7,1 0.4,0.1 0.8,-0.2 0.8,-0.6 0,-0.5 -0.2,-0.8 -0.8,-0.8 -0.6,-0.4 -1.5,-0.6 -2.1,-1.2 m -23.9,21 c 0,-0.1 0,-0.1 0,-0.2 -0.5,-3 -1,-6 -1.5,-9 -0.1,-0.7 -0.6,-0.4 -0.9,-0.3 -0.3,0.1 -0.9,-0.1 -0.8,0.6 0.2,1.1 0.4,2.3 0.6,3.4 0.3,1.7 0.6,3.4 0.8,5.1 0.1,0.9 -0.5,1.5 -1.2,1.1 -0.5,-0.2 -0.5,-0.7 -0.6,-1.1 -0.4,-2.6 -0.9,-5.3 -1.3,-7.9 -0.1,-0.7 -0.3,-0.8 -1,-0.7 -0.7,0.1 -1,0.3 -0.7,1.1 0.1,0.4 0.2,0.9 0.2,1.4 0.4,2.4 0.8,4.8 1.2,7.1 0.3,1.5 1.5,2.2 3,2 1.4,-0.2 2.2,-1.2 2.2,-2.6 m 12.7,-3.1 c -0.1,-0.1 -0.1,-0.4 -0.2,-0.6 -0.7,-2.2 -1.4,-4.5 -2.1,-6.7 -0.4,-1.2 -0.4,-1.2 -1.6,-0.9 -0.4,0.1 -0.5,0.2 -0.3,0.6 1.1,3.4 2.2,6.9 3.3,10.4 0.1,0.2 0.1,0.4 0.4,0.4 0.5,0 1.1,0 1.6,-0.1 0.4,-0.1 0.8,-0.2 0.8,-0.9 -0.1,-3.6 -0.2,-7.1 -0.2,-10.7 0,-0.2 0.1,-0.4 -0.2,-0.5 -0.6,-0.2 -1.4,0.3 -1.4,0.9 -0.1,2.7 -0.1,5.4 -0.1,8.1 m -37.7,-2.5 c 0.7,1.4 1.4,2.8 2.1,4.1 0.4,0.8 0.6,1.5 0.4,2.4 -0.3,1.4 -0.4,2.9 -0.7,4.4 0,0.2 -0.2,0.4 0.1,0.6 0.4,0.2 1.5,-0.2 1.5,-0.7 0.2,-1.3 0.4,-2.7 0.5,-4 0.1,0.1 0.2,0.1 0.2,0.1 0.4,0.8 0.9,1.7 1.3,2.5 0.7,1.5 0.7,1.5 2.3,1.2 0,0 0.1,-0.1 0.2,-0.1 -0.8,-1.6 -1.7,-3.2 -2.5,-4.8 -0.2,-0.5 -0.3,-0.9 -0.3,-1.4 0.2,-1.5 0.5,-3 0.7,-4.5 0,-0.2 0.2,-0.5 -0.1,-0.6 -0.4,-0.2 -1.4,0.3 -1.5,0.8 -0.2,1.2 -0.4,2.4 -0.5,3.6 -0.1,0 -0.1,0 -0.1,0 -0.5,-1.1 -1.1,-2.1 -1.6,-3.2 -0.2,-0.4 -0.4,-0.6 -0.8,-0.4 -0.4,-0.2 -0.8,-0.3 -1.2,0 m 28.4,7.2 c 1.8,0 2.9,-1.2 2.7,-3 -0.1,-1.2 -0.6,-2.2 -1.6,-3 -0.6,-0.5 -1.3,-0.9 -1.9,-1.4 -0.6,-0.5 -1,-1.1 -1,-1.9 0,-0.5 0.1,-0.9 0.7,-1 0.5,-0.1 0.9,0.1 1,0.6 0.1,0.2 0,0.4 0.1,0.5 0.3,0.6 0.8,0.1 1.2,0.1 0.3,0 0.4,-0.1 0.4,-0.5 -0.2,-1.6 -1.4,-2.6 -2.8,-2.5 -1.7,0.2 -2.6,1.3 -2.4,3.1 0.2,1.5 1,2.6 2.3,3.4 0.8,0.5 1.6,1 2,1.9 0.2,0.5 0.4,1 0,1.5 -0.2,0.3 -0.6,0.4 -1,0.3 -0.6,-0.1 -0.6,-0.7 -0.7,-1.2 0,-0.1 0,-0.1 0,-0.2 0,-0.3 -0.1,-0.5 -0.4,-0.4 -0.4,0.2 -1.1,-0.1 -1.2,0.5 -0.3,1.5 1.2,3.2 2.6,3.2 m -15,0 c 0,-0.2 -0.1,-0.6 -0.2,-1.1 0,-0.8 -0.3,-1 -1.1,-0.8 -0.6,0.1 -0.8,0.4 -0.6,0.9 0.1,0.3 0.1,0.6 0.2,1 0.1,0.6 0,1.1 -0.7,1.2 -0.6,0.1 -0.9,-0.3 -1,-0.8 -0.1,-0.7 -0.2,-1.4 -0.4,-2.1 -0.2,-1.5 -0.5,-3 -0.7,-4.4 -0.1,-0.5 0.1,-1 0.7,-1.1 0.6,-0.1 0.9,0.2 1.1,0.8 0.1,0.3 0.1,0.6 0.2,0.9 0,0.5 0.3,0.5 0.7,0.5 0.8,-0.1 1.2,-0.3 0.9,-1.2 -0.1,-0.3 -0.1,-0.6 -0.2,-0.9 -0.5,-1.4 -1.5,-2 -2.9,-1.7 -1.4,0.3 -2.3,1.2 -2.1,2.6 0.3,2.5 0.7,5 1.2,7.5 0.3,1.4 1.5,2.1 2.8,1.8 1.3,-0.5 2.1,-1.3 2.1,-3.1 m 42.1,-5.1 c 0,-1.2 -0.1,-1.3 -1.3,-1.1 -1.8,0.3 -1.8,0.3 -2.1,-1.4 -0.3,-1.6 -0.3,-1.6 1.3,-1.9 0.5,-0.1 0.8,-0.2 0.7,-0.9 -0.1,-0.8 -0.4,-1 -1.1,-0.8 -0.3,0.1 -0.6,0.1 -1,0.2 -0.4,0.1 -0.5,0 -0.6,-0.4 -0.1,-0.7 -0.2,-1.5 -0.4,-2.2 -0.1,-0.5 0.1,-0.6 0.5,-0.7 0.6,-0.1 1.3,-0.2 1.9,-0.3 0.8,-0.1 0.3,-0.7 0.3,-1 0,-0.3 0.1,-0.8 -0.5,-0.6 -1.3,0.3 -2.5,0.4 -3.8,0.6 -0.3,0 -0.5,0.1 -0.4,0.5 0.6,3.6 1.2,7.1 1.8,10.7 0.1,0.4 0.2,0.5 0.6,0.4 1.2,-0.2 2.5,-0.4 3.7,-0.6 0.3,0 0.5,-0.1 0.4,-0.5 m -58.3,3.3 c -0.4,0.1 -0.4,-0.2 -0.5,-0.5 -0.1,-0.7 -0.2,-1.4 -0.3,-2.1 -0.1,-0.5 0.1,-0.6 0.5,-0.7 0.6,-0.1 1.2,-0.2 1.8,-0.3 0.7,-0.1 0.5,-0.6 0.4,-1 -0.1,-0.4 0,-0.9 -0.7,-0.7 -1.2,0.2 -2.4,0.5 -3.6,0.6 -0.5,0.1 -0.5,0.3 -0.4,0.6 0.6,3.5 1.2,7 1.8,10.5 0.1,0.4 0.2,0.5 0.6,0.4 1.1,-0.2 2.3,-0.2 3.3,-0.6 0.4,-0.1 1,0 0.7,-0.7 -0.2,-0.5 0.1,-1.3 -1,-0.9 -0.1,0.1 -0.3,0 -0.4,0.1 -1.8,0.3 -1.8,0.3 -2.1,-1.5 -0.2,-1.6 -0.2,-1.6 1.3,-1.8 0.9,-0.1 0.7,-0.6 0.6,-1.1 0,-0.7 -0.4,-0.7 -0.9,-0.6 -0.2,0.2 -0.6,0.2 -1.1,0.3 m 47.1,-11.2 c 0.7,-0.2 0.5,0.3 0.6,0.6 0.5,2.9 1,5.7 1.4,8.6 0.1,0.9 0.6,0.5 1.1,0.5 0.5,0 0.8,-0.1 0.7,-0.8 -0.5,-2.6 -0.9,-5.2 -1.3,-7.8 -0.2,-1.3 -0.2,-1.4 1.1,-1.7 0.6,-0.1 0.5,-0.4 0.3,-0.8 -0.1,-0.3 0.2,-1 -0.6,-0.9 -1.5,0.2 -3,0.5 -4.4,0.7 -0.2,0 -0.4,0 -0.4,0.3 -0.1,0.9 0.3,1.4 1.2,1.3 0.1,0 0.2,0 0.3,0 m -24.9,13.9 c 0,-1.2 -0.1,-1.3 -1.3,-1.1 -0.3,0.1 -0.7,0.1 -1,0.2 -0.7,0.3 -0.9,-0.1 -1,-0.7 -0.4,-2.8 -1,-5.7 -1.4,-8.5 -0.1,-0.9 -0.7,-0.4 -1.1,-0.4 -0.4,0 -0.9,0 -0.7,0.7 0.2,0.9 0.3,1.9 0.5,2.9 0.4,2.5 0.8,5 1.3,7.6 0,0.3 0,0.6 0.5,0.6 1.3,-0.2 2.5,-0.4 3.8,-0.6 0.4,-0.2 0.4,-0.4 0.4,-0.7 m 14.9,-2.3 c -0.6,-3.7 -1.2,-7.3 -1.8,-10.9 -0.2,-0.9 -0.8,-0.2 -1.2,-0.2 -0.3,0 -0.6,0.1 -0.5,0.6 0.2,0.9 0.3,1.8 0.5,2.8 0.4,2.6 0.9,5.2 1.3,7.7 0.1,0.5 0.3,0.7 0.8,0.5 0.2,-0.2 0.8,0.1 0.9,-0.5 m 7.1,-12.8 c -1.3,0.1 -1.3,0.1 -1.1,1.3 0.5,3.3 1.1,6.5 1.6,9.8 0.1,0.9 0.6,0.6 1.1,0.5 0.5,0 0.8,-0.2 0.7,-0.8 -0.6,-3.4 -1.2,-6.8 -1.7,-10.3 -0.1,-0.4 -0.1,-0.7 -0.6,-0.5 m 17.4,5.7 c -0.2,-2.5 -0.7,-5.3 -1.1,-8 -0.1,-0.8 -0.7,-0.3 -1.1,-0.3 -0.3,0 -0.8,-0.1 -0.7,0.6 0.5,2.7 0.9,5.4 1.6,8.1 0.1,0.5 0.4,0.5 0.7,0.3 0.3,-0.1 0.8,0.1 0.6,-0.7 m 0.8,2.8 c -0.5,-0.3 0.2,-1.2 -0.7,-1.2 -0.4,0 -1.2,-0.3 -1.2,0.5 0,0.4 -0.3,1.3 0.5,1.3 0.4,0 1.1,0.1 1.4,-0.6 m -6.9,-12.9 c -1.8,0.1 -2,0.3 -2.3,2.2 1.5,0.1 1.5,-1.3 2.3,-2.2"
   clip-path="url(#SVGID_4_)"
   id="path18" />
			<path
   class="st3"
   d="m 144.7,121 c 0.8,-0.6 1.6,-1.3 2.3,-2.1 1.7,-1.3 3.2,-2.8 4.7,-4.2 4.9,-4.5 9.7,-9 14.6,-13.4 1.4,-1.3 2.8,-2.5 4.1,-3.9 0.6,-0.6 1,-0.6 1.3,0.2 v 0 c -0.4,0 -0.6,0.2 -0.8,0.4 -1.6,1.5 -3.2,3 -4.9,4.5 -5.8,5.3 -11.6,10.6 -17.3,16 -1.2,0.9 -2.2,1.9 -3.2,3 -0.4,0.1 -0.7,0.2 -0.8,-0.5"
   clip-path="url(#SVGID_4_)"
   id="path20" />
			<path
   class="st3"
   d="m 196.8,112.2 c -0.9,-0.6 -1.8,-1.2 -2.7,-1.8 -1.3,-0.9 -2.5,-1.8 -3.8,-2.7 -4.5,-3 -9,-6 -13.5,-9 -1,-0.7 -1.9,-1.5 -3.3,-0.8 -0.5,0.2 -1.3,0.2 -1.7,-0.5 v 0 c 1.1,0.4 2,0.3 2.8,-0.6 0.5,-0.6 0.2,-1.3 0.2,-2 0.6,0.5 0.5,1.1 0.6,1.6 0.1,0.4 0.2,0.6 0.5,0.9 6.4,4.3 12.7,8.5 19.1,12.8 0.1,0.1 0.3,0.1 0.4,0.2 0.6,0.7 1.6,0.8 2.2,1.5 0.1,0.2 0.4,0.4 0.2,0.6 -0.5,0.3 -0.8,-0.1 -1,-0.2"
   clip-path="url(#SVGID_4_)"
   id="path22" />
			<path
   class="st3"
   d="m 171.4,131.3 c 0,1.4 -0.8,2.4 -2.1,2.6 -1.5,0.2 -2.7,-0.5 -3,-2 -0.5,-2.4 -0.8,-4.7 -1.2,-7.1 -0.1,-0.5 -0.1,-0.9 -0.2,-1.4 -0.2,-0.7 0,-0.9 0.7,-1.1 0.7,-0.1 0.9,0 1,0.7 0.4,2.6 0.9,5.3 1.3,7.9 0.1,0.4 0.1,0.9 0.6,1.1 0.7,0.3 1.4,-0.2 1.2,-1.1 -0.2,-1.7 -0.6,-3.4 -0.8,-5.1 -0.2,-1.1 -0.4,-2.3 -0.6,-3.4 -0.1,-0.7 0.5,-0.6 0.8,-0.6 0.3,-0.1 0.8,-0.3 0.9,0.3 0.5,3 1,6 1.5,9 -0.1,0 -0.1,0.1 -0.1,0.2"
   clip-path="url(#SVGID_4_)"
   id="path24" />
			<path
   class="st3"
   d="m 184.1,128.2 c 0,-2.7 0,-5.5 0,-8.2 0,-0.6 0.8,-1.1 1.4,-0.9 0.3,0.1 0.2,0.3 0.2,0.5 0.1,3.6 0.1,7.1 0.2,10.7 0,0.7 -0.4,0.8 -0.8,0.9 -0.5,0.1 -1,0.1 -1.6,0.1 -0.3,0 -0.3,-0.2 -0.4,-0.4 -1.1,-3.5 -2.2,-6.9 -3.3,-10.4 -0.1,-0.4 -0.1,-0.5 0.3,-0.6 1.2,-0.3 1.2,-0.3 1.6,0.9 0.7,2.2 1.4,4.5 2.1,6.7 0.2,0.4 0.2,0.6 0.3,0.7"
   clip-path="url(#SVGID_4_)"
   id="path26" />
			<path
   class="st3"
   d="m 146.4,125.7 c 0.4,-0.2 0.9,-0.2 1.2,-0.3 0.4,-0.1 0.6,0.1 0.8,0.4 0.5,1.1 1.1,2.1 1.6,3.2 0,0 0.1,0 0.1,0 0.2,-1.2 0.3,-2.4 0.5,-3.6 0.1,-0.5 1.1,-1 1.5,-0.8 0.3,0.2 0.1,0.4 0.1,0.6 -0.2,1.5 -0.4,3 -0.7,4.5 -0.1,0.5 0,1 0.3,1.4 0.9,1.6 1.7,3.2 2.5,4.8 -0.1,0.1 -0.1,0.1 -0.2,0.1 -1.6,0.3 -1.6,0.3 -2.3,-1.2 -0.4,-0.8 -0.8,-1.7 -1.3,-2.5 0,0 -0.1,-0.1 -0.2,-0.1 -0.2,1.4 -0.4,2.7 -0.5,4 -0.1,0.5 -1.1,1 -1.5,0.7 -0.3,-0.1 -0.1,-0.4 -0.1,-0.6 0.2,-1.5 0.4,-2.9 0.7,-4.4 0.2,-0.9 0,-1.6 -0.4,-2.4 -0.7,-1 -1.4,-2.4 -2.1,-3.8"
   clip-path="url(#SVGID_4_)"
   id="path28" />
			<path
   class="st3"
   d="m 174.8,132.9 c -1.4,0 -2.9,-1.7 -2.5,-3 0.1,-0.6 0.8,-0.3 1.2,-0.5 0.3,-0.1 0.4,0.1 0.4,0.4 0,0.1 0,0.1 0,0.2 0.1,0.5 0.1,1 0.7,1.2 0.4,0.1 0.7,0 1,-0.3 0.3,-0.5 0.2,-1 0,-1.5 -0.4,-0.9 -1.2,-1.4 -2,-1.9 -1.2,-0.8 -2.1,-1.9 -2.3,-3.4 -0.2,-1.7 0.7,-2.9 2.4,-3.1 1.4,-0.2 2.6,0.9 2.8,2.5 0,0.4 -0.1,0.5 -0.4,0.5 -0.4,0 -0.9,0.5 -1.2,-0.1 -0.1,-0.1 -0.1,-0.3 -0.1,-0.5 -0.2,-0.5 -0.5,-0.7 -1,-0.6 -0.5,0.1 -0.7,0.5 -0.7,1 0,0.8 0.4,1.4 1,1.9 0.6,0.5 1.3,0.9 1.9,1.4 1,0.8 1.4,1.8 1.6,3 0.1,1.6 -0.9,2.8 -2.8,2.8"
   clip-path="url(#SVGID_4_)"
   id="path30" />
			<path
   class="st3"
   d="m 159.8,132.9 c 0,1.8 -0.7,2.7 -2.2,2.9 -1.3,0.2 -2.5,-0.4 -2.8,-1.8 -0.6,-2.5 -1,-5 -1.2,-7.5 -0.1,-1.4 0.7,-2.3 2.1,-2.6 1.4,-0.3 2.4,0.3 2.9,1.7 0.1,0.3 0.1,0.6 0.2,0.9 0.3,0.9 -0.1,1.1 -0.9,1.2 -0.4,0 -0.7,0 -0.7,-0.5 0,-0.3 -0.1,-0.6 -0.2,-0.9 -0.1,-0.6 -0.4,-0.9 -1.1,-0.8 -0.6,0.1 -0.8,0.6 -0.7,1.1 0.2,1.5 0.5,3 0.7,4.4 0.1,0.7 0.2,1.4 0.4,2.1 0.1,0.6 0.4,0.9 1,0.8 0.7,-0.1 0.8,-0.6 0.7,-1.2 0,-0.3 -0.1,-0.7 -0.2,-1 -0.2,-0.6 -0.1,-0.8 0.6,-0.9 0.8,-0.2 1.1,0 1.1,0.8 0.1,0.7 0.2,1.1 0.3,1.3"
   clip-path="url(#SVGID_4_)"
   id="path32" />
			<path
   class="st3"
   d="m 201.9,127.8 c 0.1,0.4 -0.1,0.4 -0.4,0.5 -1.2,0.2 -2.5,0.4 -3.7,0.6 -0.4,0.1 -0.5,0 -0.6,-0.4 -0.6,-3.6 -1.2,-7.1 -1.8,-10.7 -0.1,-0.4 0.1,-0.5 0.4,-0.5 1.3,-0.2 2.6,-0.4 3.8,-0.6 0.7,-0.1 0.5,0.4 0.5,0.6 0,0.4 0.5,0.9 -0.3,1 -0.6,0.1 -1.3,0.3 -1.9,0.3 -0.4,0 -0.6,0.2 -0.5,0.7 0.1,0.7 0.3,1.4 0.4,2.2 0,0.4 0.2,0.5 0.6,0.4 0.3,-0.1 0.7,-0.1 1,-0.2 0.8,-0.3 1,0 1.1,0.8 0.1,0.6 -0.1,0.8 -0.7,0.9 -1.6,0.3 -1.6,0.3 -1.3,1.9 0.3,1.8 0.3,1.8 2.1,1.4 1.2,-0.2 1.2,-0.1 1.3,1.1"
   clip-path="url(#SVGID_4_)"
   id="path34" />
			<path
   class="st3"
   d="m 143.6,131.1 c 0.5,-0.1 0.8,-0.1 1.2,-0.2 0.5,-0.2 0.9,-0.2 0.9,0.6 0,0.5 0.3,1 -0.6,1.1 -1.6,0.2 -1.6,0.2 -1.3,1.8 0.3,1.8 0.3,1.8 2.1,1.5 0.1,0 0.3,0 0.4,-0.1 1,-0.4 0.8,0.5 1,0.9 0.3,0.8 -0.4,0.6 -0.7,0.7 -1.1,0.3 -2.2,0.3 -3.3,0.6 -0.4,0.1 -0.6,0 -0.6,-0.4 -0.6,-3.5 -1.2,-7 -1.8,-10.5 -0.1,-0.4 0,-0.6 0.4,-0.6 1.2,-0.2 2.4,-0.4 3.7,-0.6 0.7,-0.1 0.6,0.3 0.7,0.7 0.1,0.4 0.3,0.9 -0.4,1 -0.6,0.1 -1.2,0.2 -1.8,0.3 -0.4,0.1 -0.6,0.2 -0.5,0.7 0.1,0.7 0.2,1.4 0.3,2.1 -0.1,0.2 0,0.5 0.3,0.4"
   clip-path="url(#SVGID_4_)"
   id="path36" />
			<path
   class="st3"
   d="m 190.7,119.9 c -0.1,0 -0.3,0 -0.4,0.1 -0.9,0.1 -1.3,-0.4 -1.2,-1.3 0,-0.3 0.2,-0.3 0.4,-0.3 1.5,-0.2 3,-0.5 4.4,-0.7 0.8,-0.1 0.5,0.6 0.6,0.9 0.1,0.3 0.2,0.6 -0.3,0.8 -1.3,0.3 -1.3,0.3 -1.1,1.7 0.4,2.6 0.8,5.2 1.3,7.8 0.1,0.7 -0.2,0.7 -0.7,0.8 -0.4,0 -0.9,0.4 -1.1,-0.5 -0.4,-2.9 -0.9,-5.7 -1.4,-8.6 0.1,-0.4 0.2,-0.9 -0.5,-0.7"
   clip-path="url(#SVGID_4_)"
   id="path38" />
			<path
   class="st3"
   d="m 165.8,133.8 c 0.1,0.3 0,0.4 -0.3,0.5 -1.3,0.2 -2.5,0.4 -3.8,0.6 -0.5,0.1 -0.4,-0.3 -0.5,-0.6 -0.4,-2.5 -0.8,-5 -1.3,-7.6 -0.2,-1 -0.3,-1.9 -0.5,-2.9 -0.1,-0.7 0.3,-0.7 0.7,-0.7 0.4,0 0.9,-0.5 1.1,0.4 0.4,2.8 0.9,5.7 1.4,8.5 0.1,0.6 0.3,1 1,0.7 0.3,-0.1 0.6,-0.1 1,-0.2 1,0.1 1.2,0.2 1.2,1.3"
   clip-path="url(#SVGID_4_)"
   id="path40" />
			<path
   class="st3"
   d="m 180.7,131.5 c -0.1,0.6 -0.7,0.3 -1.1,0.5 -0.4,0.2 -0.7,0 -0.8,-0.5 -0.4,-2.6 -0.8,-5.2 -1.3,-7.7 -0.2,-0.9 -0.3,-1.9 -0.5,-2.8 -0.1,-0.5 0.2,-0.6 0.5,-0.6 0.4,0.1 1.1,-0.6 1.2,0.2 0.8,3.6 1.4,7.2 2,10.9"
   clip-path="url(#SVGID_4_)"
   id="path42" />
			<path
   class="st3"
   d="m 187.8,118.7 c 0.5,-0.2 0.5,0.1 0.6,0.5 0.6,3.4 1.1,6.8 1.7,10.3 0.1,0.7 -0.2,0.8 -0.7,0.8 -0.5,0 -0.9,0.3 -1.1,-0.5 -0.5,-3.3 -1.1,-6.6 -1.6,-9.8 -0.2,-1.2 -0.2,-1.2 1.1,-1.3"
   clip-path="url(#SVGID_4_)"
   id="path44" />
			<path
   class="st3"
   d="m 205.2,124.4 c 0.2,0.8 -0.4,0.7 -0.6,0.7 -0.3,0.1 -0.6,0.2 -0.7,-0.3 -0.6,-2.7 -1.1,-5.4 -1.6,-8.1 -0.1,-0.7 0.4,-0.6 0.7,-0.6 0.4,0 0.9,-0.5 1.1,0.3 0.5,2.7 1,5.5 1.1,8"
   clip-path="url(#SVGID_4_)"
   id="path46" />
			<path
   class="st3"
   d="m 206,127.2 c -0.3,0.7 -0.9,0.6 -1.4,0.6 -0.8,-0.1 -0.5,-0.9 -0.5,-1.3 0,-0.8 0.8,-0.5 1.2,-0.5 0.9,-0.1 0.2,0.8 0.7,1.2"
   clip-path="url(#SVGID_4_)"
   id="path48" />
			<path
   class="st3"
   d="m 199.1,114.3 c -0.8,0.8 -0.8,2.2 -2.3,2.2 0.3,-1.9 0.5,-2 2.3,-2.2"
   clip-path="url(#SVGID_4_)"
   id="path50" />
			<path
   class="st3"
   d="m 144.7,121 c 0.1,0.6 0.4,0.6 0.8,0.3 0.2,0.5 0.1,0.9 -0.5,1.1 -0.4,0.1 -0.7,-0.1 -0.9,-0.4 0,-0.4 0.1,-0.8 0.6,-1"
   clip-path="url(#SVGID_4_)"
   id="path52" />
			<path
   class="st3"
   d="m 196.8,112.2 c 0.3,0.1 0.5,0.5 0.8,0.2 0.2,-0.2 0,-0.4 -0.2,-0.6 0.6,0 0.8,0.3 0.8,0.8 0,0.4 -0.4,0.7 -0.8,0.6 -0.5,-0.1 -0.8,-0.4 -0.6,-1"
   clip-path="url(#SVGID_4_)"
   id="path54" />
			<path
   class="st3"
   d="m 174.5,95.2 c 0,0.9 -0.7,1.6 -1.6,1.6 -0.9,0 -1.6,-0.7 -1.6,-1.6 0,-0.9 0.7,-1.6 1.6,-1.6 0.9,0 1.6,0.7 1.6,1.6"
   clip-path="url(#SVGID_4_)"
   id="path56" />
		</g>
	</g>
</g>
</svg>
