<?xml version="1.0" encoding="UTF-8" standalone="no"?>
<svg
   xmlns:dc="http://purl.org/dc/elements/1.1/"
   xmlns:cc="http://creativecommons.org/ns#"
   xmlns:rdf="http://www.w3.org/1999/02/22-rdf-syntax-ns#"
   xmlns:svg="http://www.w3.org/2000/svg"
   xmlns="http://www.w3.org/2000/svg"
   xmlns:xlink="http://www.w3.org/1999/xlink"
   xmlns:sodipodi="http://sodipodi.sourceforge.net/DTD/sodipodi-0.dtd"
   xmlns:inkscape="http://www.inkscape.org/namespaces/inkscape"
   version="1.1"
   id="Calque_1"
   x="0px"
   y="0px"
   viewBox="0 0 80 80"
   xml:space="preserve"
   sodipodi:docname="flash.svg"
   width="80"
   height="80"
   inkscape:version="1.0.2 (e86c870879, 2021-01-15)"><metadata
   id="metadata93"><rdf:RDF><cc:Work
       rdf:about=""><dc:format>image/svg+xml</dc:format><dc:type
         rdf:resource="http://purl.org/dc/dcmitype/StillImage" /><dc:title></dc:title></cc:Work></rdf:RDF></metadata><defs
   id="defs91" /><sodipodi:namedview
   pagecolor="#ffffff"
   bordercolor="#666666"
   borderopacity="1"
   objecttolerance="10"
   gridtolerance="10"
   guidetolerance="10"
   inkscape:pageopacity="0"
   inkscape:pageshadow="2"
   inkscape:window-width="1920"
   inkscape:window-height="1009"
   id="namedview89"
   showgrid="false"
   inkscape:zoom="3.2575"
   inkscape:cx="77.003164"
   inkscape:cy="100"
   inkscape:window-x="-8"
   inkscape:window-y="-8"
   inkscape:window-maximized="1"
   inkscape:current-layer="Calque_1" />
<style
   type="text/css"
   id="style2">
	.st0{clip-path:url(#SVGID_2_);}
	.st1{clip-path:url(#SVGID_4_);fill-rule:evenodd;clip-rule:evenodd;fill:#2FB6B4;}
	.st2{clip-path:url(#SVGID_4_);}
</style>
<g
   id="g86"
   transform="translate(0,1.5349194)">
	<g
   id="g84">
		<defs
   id="defs5">
			<rect
   id="SVGID_1_"
   width="80.199997"
   height="76.5"
   x="0"
   y="0" />
		</defs>
		<clipPath
   id="SVGID_2_">
			<use
   xlink:href="#SVGID_1_"
   style="overflow:visible"
   id="use7"
   x="0"
   y="0"
   width="100%"
   height="100%" />
		</clipPath>
		<g
   class="st0"
   clip-path="url(#SVGID_2_)"
   id="g82">
			<defs
   id="defs11">
				<rect
   id="SVGID_3_"
   y="0"
   width="80.199997"
   height="76.5"
   x="0" />
			</defs>
			<clipPath
   id="SVGID_4_">
				<use
   xlink:href="#SVGID_3_"
   style="overflow:visible"
   id="use13"
   x="0"
   y="0"
   width="100%"
   height="100%" />
			</clipPath>
			<path
   class="st1"
   d="M 44,0 C 64,0 80.2,16.2 80.2,36.2 80.2,56.2 64,72.4 44,72.4 24,72.4 7.8,56.2 7.8,36.2 7.7,16.2 23.9,0 44,0"
   clip-path="url(#SVGID_4_)"
   id="path16" />
			<path
   class="st2"
   d="m 32.5,20.6 c -4.6,0.1 -9,1.2 -12.8,3.9 -4.3,3 -7.3,7 -8.8,12 -0.2,0.7 -0.6,1.1 -1.3,1.2 C 8.2,37.9 6.8,38.3 5.3,38.6 4.5,38.8 4.2,38.5 4.4,37.7 4.9,34.8 5.9,32.1 7.2,29.5 7.8,28.2 7.3,27.4 5.9,27.4 5.5,27.4 5.1,27.2 4.8,27 3.4,25.8 2.1,24.7 0.7,23.5 -0.3,22.6 -0.3,22.2 0.6,21.2 1.8,19.8 3,18.4 4.2,17 4.6,16.5 5,16.4 5.6,16.9 c 1.4,1.3 2.8,2.5 4.3,3.8 0.3,0.3 0.5,0.5 0.5,1 0,0.7 0.7,1 1.1,1.3 0.2,0.2 0.4,-0.1 0.5,-0.2 2.6,-2.6 5.5,-4.6 8.9,-6.1 C 21.5,16.4 21.6,16 21,15.6 20.3,15 20,14.3 19.9,13.4 19.5,11.4 19,9.3 18.6,7.3 c -0.2,-1.2 -0.2,-1.4 1,-1.7 3.3,-0.8 6.5,-1.5 9.8,-2 1,-0.2 1.1,0 1.3,0.9 0.5,2.3 0.9,4.6 1.4,6.9 0.1,0.6 0.1,1.1 -0.3,1.6 -0.5,0.8 -0.2,1.2 0.7,1.3 3.4,0.1 6.7,0.7 9.9,1.9 1,0.4 1.9,-0.2 1.6,-1.3 -0.1,-0.6 0,-1.1 0.2,-1.6 0.8,-1.6 1.6,-3.2 2.3,-4.9 0.5,-0.5 0.8,-0.7 1.4,-0.4 1.8,0.8 3.5,1.6 5.3,2.5 1,0.5 1.1,0.8 0.6,1.8 -0.8,1.7 -1.7,3.4 -2.5,5.1 -0.2,0.4 -0.4,0.7 -0.9,0.8 -0.2,0.1 -0.4,0.2 -0.5,0.4 -0.7,0.9 -0.7,1.2 0.2,2 2.3,1.9 4.3,4.1 6,6.6 0.3,0.5 0.3,0.7 -0.3,1 -1.2,0.6 -2.5,0.5 -3.7,0.9 -1.4,0.5 -2.2,0.1 -3.2,-1 -3.7,-4.3 -8.6,-6.5 -14.1,-7.3 -0.7,-0.2 -1.5,-0.2 -2.3,-0.2"
   clip-path="url(#SVGID_4_)"
   id="path18" />
			<path
   class="st2"
   d="m 17.6,27.4 c 0,-0.4 0.5,-0.7 0.9,-0.4 0.6,0.6 1.2,1.3 1.7,1.9 0.2,0.3 0,0.5 -0.2,0.8 -0.2,0.2 -0.4,0.3 -0.6,0.1 -0.7,-0.7 -1.4,-1.3 -1.8,-2.2 0,-0.1 0,-0.1 0,-0.2"
   clip-path="url(#SVGID_4_)"
   id="path20" />
			<path
   class="st2"
   d="m 39.6,23.2 c -0.1,0.8 -0.4,1.6 -0.8,2.4 -0.1,0.3 -0.3,0.5 -0.7,0.4 -0.3,-0.1 -0.5,-0.4 -0.4,-0.7 0.3,-0.8 0.5,-1.6 0.9,-2.4 0.1,-0.3 0.3,-0.4 0.6,-0.3 0.4,0 0.4,0.3 0.4,0.6"
   clip-path="url(#SVGID_4_)"
   id="path22" />
			<path
   class="st2"
   d="m 28.9,24.7 c 0,0.4 -0.2,0.7 -0.5,0.8 -0.4,0.1 -0.5,-0.2 -0.6,-0.5 -0.2,-0.8 -0.3,-1.5 -0.4,-2.3 -0.1,-0.3 0,-0.7 0.4,-0.7 0.4,-0.1 0.5,0.2 0.6,0.5 0.2,0.7 0.4,1.5 0.5,2.2"
   clip-path="url(#SVGID_4_)"
   id="path24" />
			<path
   class="st2"
   d="m 45.9,29.3 c -0.4,0 -0.7,-0.5 -0.4,-0.9 0.3,-0.4 0.7,-0.8 1,-1.2 0.3,-0.3 0.6,-0.2 0.7,0.2 0.3,0.5 -0.8,1.9 -1.3,1.9"
   clip-path="url(#SVGID_4_)"
   id="path26" />
			<path
   class="st2"
   d="m 18.1,30.1 c 0,0.4 -0.4,0.8 -0.8,0.5 -0.5,-0.3 -0.9,-0.8 -1.2,-1.3 -0.2,-0.4 0.1,-0.6 0.4,-0.7 0.3,0 1.6,1.2 1.6,1.5"
   clip-path="url(#SVGID_4_)"
   id="path28" />
			<path
   class="st2"
   d="m 16.8,31.7 c -0.1,0.4 -0.4,0.8 -0.8,0.5 -0.5,-0.3 -0.9,-0.7 -1.2,-1.2 -0.1,-0.2 -0.1,-0.4 0,-0.5 0.1,-0.2 0.3,-0.3 0.5,-0.2 0.5,0.3 1,0.7 1.4,1.1 0,0.1 0.1,0.2 0.1,0.3"
   clip-path="url(#SVGID_4_)"
   id="path30" />
			<path
   class="st2"
   d="m 12.4,34.7 c 0,-0.4 0.3,-0.6 0.6,-0.4 0.5,0.2 0.9,0.4 1.4,0.6 0.4,0.2 0.3,0.8 -0.1,0.9 -0.5,0.3 -1.9,-0.5 -1.9,-1.1"
   clip-path="url(#SVGID_4_)"
   id="path32" />
			<path
   class="st2"
   d="m 44.3,28 c -0.4,-0.2 -0.6,-0.4 -0.4,-0.8 0.3,-0.5 0.6,-0.9 0.9,-1.3 0.1,-0.2 0.3,-0.2 0.5,-0.1 0.2,0.1 0.3,0.2 0.3,0.4 -0.2,0.7 -0.5,1.3 -1,1.7 C 44.4,28 44.4,28 44.3,28"
   clip-path="url(#SVGID_4_)"
   id="path34" />
			<path
   class="st2"
   d="m 21.2,27.2 c 0,0.4 -0.1,0.6 -0.4,0.7 -0.2,0.1 -0.4,0 -0.5,-0.2 -0.4,-0.4 -0.6,-0.9 -0.8,-1.4 -0.1,-0.2 -0.1,-0.4 0.1,-0.5 0.1,-0.2 0.3,-0.2 0.5,-0.1 0.5,0.3 0.8,1 1.1,1.5"
   clip-path="url(#SVGID_4_)"
   id="path36" />
			<path
   class="st2"
   d="m 29.8,22.7 c 0,-0.2 0,-0.4 0,-0.5 0,-0.3 0.1,-0.5 0.4,-0.6 0.3,0 0.5,0.2 0.5,0.5 0.1,0.5 0.1,1 0.1,1.5 0,0.3 -0.1,0.6 -0.5,0.6 -0.3,0 -0.4,-0.3 -0.5,-0.5 0,-0.4 0,-0.7 0,-1"
   clip-path="url(#SVGID_4_)"
   id="path38" />
			<path
   class="st2"
   d="m 41.6,24.2 c -0.1,0.3 -0.3,0.8 -0.5,1.3 -0.1,0.2 -0.3,0.5 -0.6,0.3 -0.3,-0.1 -0.4,-0.4 -0.3,-0.6 0.2,-0.5 0.4,-1 0.7,-1.5 0.1,-0.2 0.3,-0.3 0.5,-0.2 0.2,0 0.3,0.3 0.2,0.7"
   clip-path="url(#SVGID_4_)"
   id="path40" />
			<path
   class="st2"
   d="m 35.1,22.6 c 0,0.3 -0.1,0.7 -0.1,1 0,0.3 -0.2,0.5 -0.5,0.5 -0.3,0 -0.4,-0.2 -0.4,-0.5 0,-0.6 0.1,-1.2 0.2,-1.7 0.1,-0.2 0.3,-0.4 0.5,-0.3 0.5,0.2 0.3,0.6 0.3,1"
   clip-path="url(#SVGID_4_)"
   id="path42" />
			<path
   class="st2"
   d="m 15.6,33.4 c -0.1,0.4 -0.3,0.7 -0.7,0.5 -0.5,-0.2 -1,-0.5 -1.4,-1 -0.1,-0.2 -0.2,-0.4 0,-0.6 0.2,-0.2 0.4,-0.2 0.6,0 0.4,0.2 0.8,0.4 1.1,0.7 0.3,0.1 0.4,0.2 0.4,0.4"
   clip-path="url(#SVGID_4_)"
   id="path44" />
			<path
   class="st2"
   d="m 23.3,24.1 c 0,-0.4 0,-0.6 0.3,-0.7 0.2,-0.1 0.4,0 0.5,0.2 0.2,0.5 0.5,1 0.7,1.5 0.1,0.3 0,0.5 -0.3,0.7 -0.3,0.1 -0.5,0 -0.6,-0.3 -0.2,-0.6 -0.4,-1.1 -0.6,-1.4"
   clip-path="url(#SVGID_4_)"
   id="path46" />
			<path
   class="st2"
   d="m 43.6,25 c -0.1,0.6 -0.4,1.1 -0.8,1.6 -0.1,0.2 -0.3,0.2 -0.5,0.1 -0.2,-0.1 -0.4,-0.3 -0.3,-0.6 0.2,-0.6 0.5,-1.1 0.9,-1.6 0.1,-0.2 0.3,-0.2 0.5,-0.1 0.1,0.2 0.2,0.3 0.2,0.6"
   clip-path="url(#SVGID_4_)"
   id="path48" />
			<path
   class="st2"
   d="m 21.7,24.3 c 0.3,0 0.4,0.1 0.5,0.3 0.2,0.4 0.5,0.8 0.7,1.2 0.2,0.3 0.1,0.6 -0.2,0.8 -0.3,0.2 -0.5,0 -0.7,-0.2 -0.3,-0.4 -0.5,-0.9 -0.7,-1.4 -0.1,-0.4 0.1,-0.6 0.4,-0.7"
   clip-path="url(#SVGID_4_)"
   id="path50" />
			<path
   class="st2"
   d="m 37.4,22.7 c -0.1,0.4 -0.2,0.9 -0.3,1.4 -0.1,0.2 -0.2,0.5 -0.5,0.4 -0.3,0 -0.5,-0.3 -0.5,-0.5 0.1,-0.6 0.2,-1.1 0.4,-1.7 0.1,-0.2 0.3,-0.3 0.5,-0.3 0.3,0.1 0.4,0.3 0.4,0.7"
   clip-path="url(#SVGID_4_)"
   id="path52" />
			<path
   class="st2"
   d="m 25.5,23.2 c 0,-0.4 0.1,-0.6 0.4,-0.7 0.2,0 0.4,0.1 0.5,0.3 0.2,0.5 0.4,1 0.5,1.5 0.1,0.3 0,0.6 -0.4,0.7 -0.3,0.1 -0.5,-0.1 -0.6,-0.4 -0.2,-0.5 -0.3,-1 -0.4,-1.4"
   clip-path="url(#SVGID_4_)"
   id="path54" />
			<path
   class="st2"
   d="m 32,22.8 c 0.1,-0.4 -0.3,-1.2 0.5,-1.2 0.7,0 0.4,0.8 0.4,1.2 0,0.5 0.2,1.3 -0.5,1.2 C 31.8,24 32,23.2 32,22.8"
   clip-path="url(#SVGID_4_)"
   id="path56" />
			<path
   class="st2"
   d="m 47.2,29.7 c 0.4,-0.5 0.7,-0.8 1.1,-1 0.3,-0.1 0.5,0 0.6,0.2 0.1,0.3 0,0.5 -0.3,0.5 -0.4,0.1 -0.8,0.2 -1.4,0.3"
   clip-path="url(#SVGID_4_)"
   id="path58" />
			<path
   class="st2"
   d="m 13,36.8 c -0.4,0.1 -0.7,0.2 -1,0.3 -0.2,0 -0.5,0.1 -0.5,-0.2 0,-0.3 0.2,-0.5 0.5,-0.5 0.3,-0.1 0.6,0.1 1,0.4"
   clip-path="url(#SVGID_4_)"
   id="path60" />
			<polygon
   class="st2"
   points="18.2,52.9 17.3,40.8 19.5,40.3 20.3,56 17.1,56.7 11.7,41.9 14.2,41.4 18.1,52.9 "
   clip-path="url(#SVGID_4_)"
   id="polygon62" />
			<polygon
   class="st2"
   points="23.5,41.8 24.3,45.8 27.6,45.2 28.1,47.3 24.8,48 25.7,52.7 29.9,51.8 30.3,54 23.8,55.3 20.7,40.1 27.2,38.8 27.7,41 "
   clip-path="url(#SVGID_4_)"
   id="polygon64" />
			<polygon
   class="st2"
   points="35.8,46.5 34,37.4 36.1,37 39.2,52.2 36.7,52.7 31.6,42.2 31.5,42.2 33.8,53.3 31.7,53.7 28.6,38.5 31.6,37.9 35.8,46.5 "
   clip-path="url(#SVGID_4_)"
   id="polygon66" />
			<polygon
   class="st2"
   points="44.6,35.2 45.1,37.4 42.6,37.9 45.2,51 42.8,51.5 40.2,38.4 37.7,38.9 37.2,36.7 "
   clip-path="url(#SVGID_4_)"
   id="polygon68" />
			<polygon
   class="st2"
   points="48.6,36.7 49.4,40.7 52.7,40 53.2,42.2 49.9,42.9 50.8,47.6 55,46.7 55.4,48.9 48.9,50.2 45.8,35 52.3,33.7 52.8,35.9 "
   clip-path="url(#SVGID_4_)"
   id="polygon70" />
			<polygon
   class="st2"
   points="19.6,62.9 20.4,67.2 23.5,66.6 24,68.7 20.9,69.4 22.2,76 19.8,76.5 16.7,61.3 23.1,60 23.5,62.1 "
   clip-path="url(#SVGID_4_)"
   id="polygon72" />
			<polygon
   class="st2"
   points="33.2,71.5 33.6,73.7 27.3,75 24.2,59.7 26.6,59.2 29.3,72.3 "
   clip-path="url(#SVGID_4_)"
   id="polygon74" />
			<path
   class="st2"
   d="m 33.6,57.8 3.2,-0.7 5.6,14.7 -2.4,0.5 -1,-2.9 v 0 l -2.7,0.6 0.2,3.1 -2.2,0.5 z m 4.7,9.7 -2.6,-7.3 v 0 l 0.5,7.7 z"
   clip-path="url(#SVGID_4_)"
   id="path76" />
			<path
   class="st2"
   d="m 42.4,68.1 -0.2,-0.9 2.3,-0.5 0.2,1 c 0.2,1.1 0.8,1.4 1.5,1.2 0.8,-0.2 1.2,-0.6 0.9,-1.8 -0.3,-1.3 -0.9,-2 -2.7,-3 -2.4,-1.4 -3.3,-2.5 -3.6,-4.2 -0.5,-2.4 0.5,-4 2.8,-4.5 2.3,-0.5 3.8,0.7 4.3,3.1 L 48,59.1 45.7,59.6 45.6,59 c -0.2,-1.1 -0.7,-1.4 -1.5,-1.3 -0.8,0.2 -1.1,0.7 -0.9,1.7 0.2,1.1 0.9,1.8 2.7,2.9 2.4,1.4 3.2,2.4 3.6,4.3 0.5,2.5 -0.5,4.1 -2.8,4.6 -2.4,0.5 -3.8,-0.6 -4.3,-3.1"
   clip-path="url(#SVGID_4_)"
   id="path78" />
			<polygon
   class="st2"
   points="54.8,60 53.5,53.8 55.9,53.3 59,68.5 56.6,69 55.2,62.2 52.6,62.7 54,69.5 51.6,70 48.5,54.8 50.9,54.3 52.2,60.5 "
   clip-path="url(#SVGID_4_)"
   id="polygon80" />
		</g>
	</g>
</g>
</svg>
