<?xml version="1.0" encoding="UTF-8" standalone="no"?>
<svg
   version="1.1"
   id="Calque_1"
   x="0px"
   y="0px"
   viewBox="0 0 80 80"
   xml:space="preserve"
   sodipodi:docname="souscompromis.svg"
   width="80"
   height="80"
   inkscape:version="1.2.1 (9c6d41e410, 2022-07-14)"
   xmlns:inkscape="http://www.inkscape.org/namespaces/inkscape"
   xmlns:sodipodi="http://sodipodi.sourceforge.net/DTD/sodipodi-0.dtd"
   xmlns="http://www.w3.org/2000/svg"
   xmlns:svg="http://www.w3.org/2000/svg"
   xmlns:rdf="http://www.w3.org/1999/02/22-rdf-syntax-ns#"
   xmlns:cc="http://creativecommons.org/ns#"
   xmlns:dc="http://purl.org/dc/elements/1.1/"><metadata
   id="metadata69"><rdf:RDF><cc:Work
       rdf:about=""><dc:format>image/svg+xml</dc:format><dc:type
         rdf:resource="http://purl.org/dc/dcmitype/StillImage" /></cc:Work></rdf:RDF></metadata><defs
   id="defs67"><clipPath
     clipPathUnits="userSpaceOnUse"
     id="clipPath81"><path
       d="M 0,80 H 80 V 0 H 0 Z"
       id="path79" /></clipPath><pattern
     id="EMFhbasepattern"
     patternUnits="userSpaceOnUse"
     width="6"
     height="6"
     x="0"
     y="0" /><pattern
     id="EMFhbasepattern-3"
     patternUnits="userSpaceOnUse"
     width="6"
     height="6"
     x="0"
     y="0" /><pattern
     id="EMFhbasepattern-4"
     patternUnits="userSpaceOnUse"
     width="6"
     height="6"
     x="0"
     y="0" /></defs><sodipodi:namedview
   pagecolor="#ffffff"
   bordercolor="#666666"
   borderopacity="1"
   objecttolerance="10"
   gridtolerance="10"
   guidetolerance="10"
   inkscape:pageopacity="0"
   inkscape:pageshadow="2"
   inkscape:window-width="1920"
   inkscape:window-height="1017"
   id="namedview65"
   showgrid="false"
   inkscape:zoom="3.2575"
   inkscape:cx="110.66769"
   inkscape:cy="26.707598"
   inkscape:window-x="-8"
   inkscape:window-y="-8"
   inkscape:window-maximized="1"
   inkscape:current-layer="g75"
   inkscape:showpageshadow="2"
   inkscape:pagecheckerboard="0"
   inkscape:deskcolor="#d1d1d1" />
<style
   type="text/css"
   id="style2">
	.st0{clip-path:url(#SVGID_2_);}
	.st1{clip-path:url(#SVGID_4_);fill-rule:evenodd;clip-rule:evenodd;fill:#2FB6B4;}
	.st2{clip-path:url(#SVGID_4_);}
	.st3{clip-path:url(#SVGID_4_);fill:#FBF5F3;}
</style>

<g
   id="g75"
   transform="matrix(1.3333333,0,0,-1.3333333,11.899042,134.68145)"><path
     style="fill:#30b5b3;fill-opacity:1;fill-rule:evenodd;stroke:none;stroke-width:0.573153"
     d="m 24.001509,99.85984 c 14.549979,0 26.189961,-13.044828 26.189961,-29.100001 0,-16.055173 -11.639982,-29.1 -26.189961,-29.1 -14.7318526,0 -26.3718353,13.044827 -26.3718353,29.1 0,16.055173 11.6399827,29.100001 26.3718353,29.100001 z"
     id="path3492" /><path
     style="fill:#1d1d1b;fill-opacity:1;fill-rule:nonzero;stroke:none;stroke-width:0.573153"
     d="m 46.008351,56.912253 c 0,-0.802759 -0.363749,-1.204138 -1.091248,-1.404828 -0.36375,-0.20069 -0.909374,-0.20069 -1.273123,-0.401379 -2.546246,-0.40138 -5.092492,-1.003449 -7.638739,-1.404828 C 32.185872,52.89846 28.184628,52.095701 24.365259,51.292942 19.272766,50.289494 14.180274,49.486735 9.2696564,48.483287 6.7234103,47.881218 4.1771644,47.479839 1.6309176,46.87777 0.53966924,46.67708 -0.55157909,46.67708 -1.6428275,46.275701 c -0.7274988,-0.20069 -1.6368724,-0.20069 -2.3643713,-0.40138 -0.9093736,-0.200689 -1.4549978,0.40138 -1.6368725,1.404828 -0.3637495,2.608966 -0.9093737,5.418621 -1.2731231,8.027586 -0.3637494,2.608966 -0.7274989,5.217932 -1.2731231,7.826897 -0.1818747,1.404828 0.1818748,2.006897 1.6368725,2.207586 1.8187473,0.40138 3.8193692,0.802759 5.81999118,1.204138 0.36374945,0.20069 0.7274989,0.20069 0.90937362,0.20069 -0.36374945,-0.802759 -0.90937362,-1.204138 -1.6368725,-1.806207 -0.3637495,0 -0.3637495,-0.401379 -0.3637495,-0.802759 0.1818747,-0.200689 0.3637495,-0.401379 0.7274989,-0.401379 0.36374948,0.20069 0.36374948,0.602069 0.36374948,1.003448 0.7274989,0.802759 1.45499779,1.605518 2.18249672,2.408276 2.7281215,0.40138 5.4562421,1.003449 8.1843629,1.404828 5.6381162,1.204138 11.2762332,2.207586 16.9143502,3.411724 2.546245,0.40138 5.092492,1.003449 7.638738,1.404828 0.727499,-0.401379 1.273123,-0.802759 2.000622,-1.404828 -0.181875,-0.401379 0,-0.602069 0.36375,-0.802758 0.363749,0 0.727498,0.200689 0.727498,0.602069 0,0.401379 -0.181874,0.602069 -0.545624,0.602069 -0.545624,0.602069 -1.273123,0.602069 -1.636872,1.204138 2.182496,0.401379 4.183118,0.802758 6.365615,1.204137 1.091248,0.40138 1.818747,-0.401379 2.000622,-1.404827 0.727499,-5.217931 1.636873,-10.435862 2.364371,-15.653794 0.181875,-0.200689 0.181875,-0.602069 0.181875,-0.802758 z"
     id="path3494" /><path
     style="fill:#fbf4f2;fill-opacity:1;fill-rule:nonzero;stroke:none;stroke-width:0.573153"
     d="m -1.4609527,64.939839 c 0.54562416,0.602069 1.27312305,1.003448 1.6368725,1.806207 1.2731231,1.003448 2.3643714,2.207586 3.4556197,3.211035 3.4556202,3.612414 7.0931145,7.224827 10.5487345,10.837241 0.909374,1.003449 2.000622,2.006897 2.909995,3.010345 0.545625,0.602069 0.727499,0.602069 1.091249,0 0,0 0,0 0,0 -0.36375,0 -0.545624,-0.200689 -0.727499,-0.401379 C 16.362771,82.19915 15.089648,80.995012 13.998399,79.790874 9.8152806,75.576391 5.6321619,71.361908 1.4490429,67.147425 0.72154397,66.344667 -0.00595492,65.541908 -0.73345382,64.739149 -1.0972033,64.53846 -1.279078,64.53846 -1.4609527,64.939839 Z"
     id="path3496" /><path
     style="fill:#fbf4f2;fill-opacity:1;fill-rule:nonzero;stroke:none;stroke-width:0.573153"
     d="m 36.187116,71.963977 c -0.727499,0.602069 -1.273123,1.003449 -2.000622,1.404828 -0.909373,0.802758 -1.818748,1.404827 -2.728121,2.207586 -3.273745,2.408276 -6.54749,4.816552 -9.821235,7.224828 -0.545624,0.401379 -1.273124,1.003448 -2.364372,0.602069 -0.181875,-0.20069 -0.909373,-0.20069 -1.091248,0.401379 0,0 0,0 0,0 0.727499,-0.401379 1.273123,-0.401379 2.000622,0.40138 0.181874,0.602068 0,1.003448 0,1.605517 0.545624,-0.40138 0.36375,-0.802759 0.36375,-1.204138 0.181874,-0.401379 0.181874,-0.602069 0.363749,-0.802759 4.728742,-3.211034 9.275611,-6.622759 13.822479,-10.034483 0.181875,-0.200689 0.181875,-0.200689 0.36375,-0.200689 0.363749,-0.602069 1.091248,-0.602069 1.636872,-1.204138 0,-0.20069 0.181875,-0.20069 0,-0.40138 -0.181874,-0.401379 -0.363749,0 -0.545624,0 z"
     id="path3498" /><path
     style="fill:#fbf4f2;fill-opacity:1;fill-rule:nonzero;stroke:none;stroke-width:0.573153"
     d="m 36.187116,71.963977 c 0.181875,0 0.36375,-0.401379 0.545624,0 0.181875,0.20069 0,0.20069 0,0.40138 0.36375,0 0.545624,-0.20069 0.545624,-0.602069 0,-0.40138 -0.363749,-0.602069 -0.727498,-0.602069 -0.36375,0.200689 -0.545625,0.401379 -0.36375,0.802758 z"
     id="path3500" /><path
     style="fill:#fbf4f2;fill-opacity:1;fill-rule:nonzero;stroke:none;stroke-width:0.573153"
     d="m 20.000265,85.610874 c 0,-0.602069 -0.363749,-1.204138 -1.091248,-1.204138 -0.545624,0 -1.091249,0.602069 -1.091249,1.204138 0,0.602069 0.545625,1.204138 1.091249,1.204138 0.727499,0 1.091248,-0.602069 1.091248,-1.204138 z"
     id="path3502" /><path
     style="fill:#fbf4f2;fill-opacity:1;fill-rule:nonzero;stroke:none;stroke-width:0.573153"
     d="m -3.8253241,53.500528 c 0.1818747,0 0.5456242,0 0.9093736,0 0.5456242,0.20069 0.7274989,0.40138 0.7274989,1.003449 -0.1818747,0.401379 -0.3637495,0.602069 -0.9093736,1.003448 -0.7274989,0.20069 -1.0912484,0.802759 -1.2731231,1.404828 -0.1818747,1.003448 0.3637495,1.806207 1.2731231,2.006896 0.3637494,0 0.7274989,0 0.9093736,-0.200689 0,-0.802759 0,-0.802759 0,-0.802759 -0.1818747,0.20069 -0.3637495,0.20069 -0.7274989,0.20069 -0.5456242,-0.20069 -0.7274989,-0.602069 -0.5456242,-1.003449 0,-0.401379 0.1818748,-0.602069 0.9093736,-0.802758 0.7274989,-0.40138 1.0912484,-1.003449 1.0912484,-1.605518 0.1818747,-1.003448 -0.3637495,-1.806206 -1.2731231,-2.006896 -0.5456241,0 -0.9093736,0 -1.0912483,0 z"
     id="path3504" /><path
     style="fill:#fbf4f2;fill-opacity:1;fill-rule:nonzero;stroke:none;stroke-width:0.573153"
     d="m 2.1765418,56.711563 c 0.1818747,-2.207586 -0.3637495,-3.211035 -1.27312311,-3.411724 -1.09124834,-0.20069 -1.81874723,1.003448 -2.00062199,2.809655 -0.3637494,1.806207 0,3.211035 1.09124838,3.411724 1.27312302,0.20069 1.81874722,-1.204138 2.18249672,-2.809655 z m -2.54624617,-0.401379 c 0.36374945,-1.404828 0.72749889,-2.207587 1.27312306,-2.207587 0.54562421,0.20069 0.54562421,1.204138 0.36374941,2.408276 -0.1818747,1.204138 -0.54562413,2.207587 -1.0912483,2.207587 -0.54562417,-0.20069 -0.72749889,-1.204138 -0.54562417,-2.408276 z"
     id="path3506" /><path
     style="fill:#fbf4f2;fill-opacity:1;fill-rule:nonzero;stroke:none;stroke-width:0.573153"
     d="m 3.2677901,59.922598 c 0.5456242,-3.813104 0.5456242,-3.813104 0.5456242,-3.813104 0.1818747,-1.003448 0.3637501,-1.204138 0.7274988,-1.204138 0.3637495,0 0.5456239,0.401379 0.5456239,1.404828 -0.7274986,3.813103 -0.7274986,3.813103 -0.7274986,3.813103 0.9093741,0.20069 0.9093741,0.20069 0.9093741,0.20069 0.5456241,-3.813104 0.5456241,-3.813104 0.5456241,-3.813104 0.3637495,-1.404827 -0.1818747,-2.207586 -1.091248,-2.408276 -0.9093743,-0.200689 -1.6368732,0.40138 -1.818748,1.806207 -0.5456241,3.813104 -0.5456241,3.813104 -0.5456241,3.813104 z"
     id="path3508" /><path
     style="fill:#fbf4f2;fill-opacity:1;fill-rule:nonzero;stroke:none;stroke-width:0.573153"
     d="m 6.905285,55.507425 c 0.1818747,0 0.5456242,0 0.7274989,0 0.5456241,0 0.9093736,0.401379 0.7274989,1.003448 0,0.40138 -0.3637495,0.602069 -0.9093736,0.802759 -0.5456242,0.401379 -1.0912484,1.003448 -1.2731231,1.605517 0,0.802759 0.3637494,1.806207 1.4549978,2.006897 0.3637494,0 0.7274989,0 0.7274989,-0.20069 0,-0.802758 0,-0.802758 0,-0.802758 -0.1818748,0 -0.3637495,0.200689 -0.7274989,0 -0.3637495,0 -0.5456242,-0.40138 -0.5456242,-0.802759 0,-0.401379 0.3637495,-0.602069 0.9093736,-0.802759 0.7274989,-0.401379 1.0912484,-1.003448 1.2731231,-1.605517 0.1818747,-1.003448 -0.5456242,-1.806207 -1.4549978,-2.006897 -0.3637494,-0.200689 -0.7274989,0 -0.9093736,0 z"
     id="path3510" /><path
     style="fill:#fbf4f2;fill-opacity:1;fill-rule:nonzero;stroke:none;stroke-width:0.573153"
     d="m 11.088404,58.71846 0.181874,-0.602069 -1.8187469,-0.40138 v 0.802759 z"
     id="path3512" /><path
     style="fill:#fbf4f2;fill-opacity:1;fill-rule:nonzero;stroke:none;stroke-width:0.573153"
     d="m 14.725898,56.109494 c 0,-0.20069 -0.363749,-0.20069 -0.727499,-0.401379 -1.273123,-0.20069 -2.182496,0.802758 -2.364371,2.608965 -0.36375,2.408276 0.545624,3.411725 1.636872,3.612414 0.36375,0 0.545624,0 0.727499,0 -0.181875,-0.802758 -0.181875,-0.802758 -0.181875,-0.802758 0,0 -0.181874,0 -0.363749,0 -0.727499,-0.20069 -1.091248,-0.802759 -0.909374,-2.608966 0.181875,-1.605517 0.909374,-2.006897 1.454998,-1.806207 0.181875,0 0.36375,0 0.545624,0.20069 z"
     id="path3514" /><path
     style="fill:#fbf4f2;fill-opacity:1;fill-rule:nonzero;stroke:none;stroke-width:0.573153"
     d="m 17.817768,59.721908 c 0.36375,-2.207586 -0.181874,-3.211035 -1.091248,-3.411724 -1.091248,-0.20069 -1.818747,1.003448 -2.182497,2.809655 -0.181874,1.605517 0.181875,3.010345 1.273123,3.211035 1.091249,0.200689 1.818748,-1.003449 2.000622,-2.608966 z m -2.364371,-0.602069 c 0.181875,-1.204138 0.545624,-2.207586 1.091248,-2.006897 0.545624,0 0.545624,1.204138 0.36375,2.408276 -0.181875,1.003449 -0.36375,2.207587 -1.091249,2.006897 -0.363749,0 -0.545624,-1.003448 -0.363749,-2.408276 z"
     id="path3516" /><path
     style="fill:#fbf4f2;fill-opacity:1;fill-rule:nonzero;stroke:none;stroke-width:0.573153"
     d="m 22.000887,59.721908 c -0.181875,0.602069 -0.363749,1.404828 -0.363749,2.006897 0,0 0,0 0,0 0,-0.602069 -0.181875,-1.404828 -0.181875,-2.006897 -0.181875,-2.408276 -0.181875,-2.408276 -0.181875,-2.408276 -0.545624,-0.20069 -0.545624,-0.20069 -0.545624,-0.20069 -0.909374,2.207587 -0.909374,2.207587 -0.909374,2.207587 -0.181874,0.602069 -0.545624,1.404827 -0.727499,2.006896 0,0 0,0 0,0 0.181875,-0.602069 0.181875,-1.404827 0.181875,-2.207586 0.36375,-2.207586 0.36375,-2.207586 0.36375,-2.207586 -0.727499,-0.20069 -0.727499,-0.20069 -0.727499,-0.20069 -0.545624,6.02069 -0.545624,6.02069 -0.545624,6.02069 0.909373,0.20069 0.909373,0.20069 0.909373,0.20069 0.909374,-2.408276 0.909374,-2.408276 0.909374,-2.408276 0.181874,-0.602069 0.36375,-1.204138 0.727499,-1.806207 0,0 0,0 0,0 0,0.602069 0,1.204138 0,2.006896 0.181875,2.608966 0.181875,2.608966 0.181875,2.608966 0.909373,0.20069 0.909373,0.20069 0.909373,0.20069 1.273124,-6.02069 1.273124,-6.02069 1.273124,-6.02069 -0.909375,-0.20069 -0.909375,-0.20069 -0.909375,-0.20069 z"
     id="path3518" /><path
     style="fill:#fbf4f2;fill-opacity:1;fill-rule:nonzero;stroke:none;stroke-width:0.573153"
     d="m 23.092135,63.535012 c 0.36375,0.200689 0.545625,0.200689 1.091249,0.401379 0.545624,0 0.909373,0 1.273123,-0.20069 0.363749,-0.401379 0.545625,-0.802758 0.727499,-1.204138 0,-0.602069 0,-1.204138 -0.181874,-1.404827 -0.363751,-0.602069 -0.7275,-0.802759 -1.273124,-1.003449 0,0 -0.181875,0 -0.181875,0 0.36375,-2.207586 0.36375,-2.207586 0.36375,-2.207586 -0.909374,-0.20069 -0.909374,-0.20069 -0.909374,-0.20069 z m 1.273124,-2.608966 c 0,0 0.181874,0 0.181874,0 0.545624,0.20069 0.909374,0.602069 0.727499,1.404828 0,0.401379 -0.363749,0.802758 -0.909373,0.802758 -0.181875,0 -0.181875,0 -0.36375,-0.200689 z"
     id="path3520" /><path
     style="fill:#fbf4f2;fill-opacity:1;fill-rule:nonzero;stroke:none;stroke-width:0.573153"
     d="m 26.547756,64.13708 c 0.363749,0.20069 0.727498,0.40138 1.091248,0.40138 0.545624,0 0.909373,0 1.273123,-0.20069 0.36375,-0.20069 0.545624,-0.602069 0.727498,-1.204138 0,-0.602069 -0.181874,-1.204138 -0.727498,-1.605517 0,0 0,0 0,0 0.545624,-0.20069 0.727498,-0.401379 0.909374,-1.204138 0.181875,-0.602069 0.545624,-1.204138 0.545624,-1.404828 -0.909374,-0.200689 -0.909374,-0.200689 -0.909374,-0.200689 0,0.200689 -0.181874,0.802758 -0.36375,1.404827 -0.363749,0.802759 -0.545624,1.003449 -0.909373,0.802759 -0.181875,0 -0.181875,0 -0.181875,0 0.36375,-2.408276 0.36375,-2.408276 0.36375,-2.408276 -0.909374,-0.20069 -0.909374,-0.20069 -0.909374,-0.20069 z m 1.273123,-2.408275 c 0.181874,0 0.181874,0 0.181874,0 0.545624,0 0.909374,0.602069 0.727499,1.204138 0,0.602069 -0.363749,1.003448 -0.909373,0.802758 -0.181875,0 -0.181875,0 -0.36375,0 z"
     id="path3522" /><path
     style="fill:#fbf4f2;fill-opacity:1;fill-rule:nonzero;stroke:none;stroke-width:0.573153"
     d="m 33.64087,62.531563 c 0.363749,-2.207586 -0.363749,-3.211034 -1.273124,-3.411724 -1.091248,-0.20069 -1.818746,1.003448 -2.000621,2.809655 -0.363749,1.806207 0.181875,3.211035 1.273123,3.411724 1.091248,0.20069 1.636873,-1.204138 2.000622,-2.809655 z m -2.364372,-0.401379 c 0.181875,-1.404828 0.545624,-2.207586 1.091248,-2.207586 0.545624,0.200689 0.545624,1.204138 0.36375,2.408276 -0.181874,1.204138 -0.545624,2.207586 -1.091248,2.207586 -0.545624,-0.20069 -0.545624,-1.204138 -0.36375,-2.408276 z"
     id="path3524" /><path
     style="fill:#fbf4f2;fill-opacity:1;fill-rule:nonzero;stroke:none;stroke-width:0.573153"
     d="m 37.642114,62.531563 c 0,0.802759 -0.181875,1.605517 -0.36375,2.207586 0,0 0,0 0,0 0,-0.602069 0,-1.404827 0,-2.006896 -0.181874,-2.608966 -0.181874,-2.608966 -0.181874,-2.608966 -0.727499,0 -0.727499,0 -0.727499,0 -0.909374,2.207587 -0.909374,2.207587 -0.909374,2.207587 -0.181875,0.602069 -0.363749,1.204138 -0.545624,2.006896 0,0 0,0 0,0 0,-0.802758 0.181875,-1.605517 0.181875,-2.207586 0.181874,-2.408276 0.181874,-2.408276 0.181874,-2.408276 -0.727499,0 -0.727499,0 -0.727499,0 -0.545624,6.02069 -0.545624,6.02069 -0.545624,6.02069 0.909374,0.200689 0.909374,0.200689 0.909374,0.200689 0.909374,-2.408275 0.909374,-2.408275 0.909374,-2.408275 0.363749,-0.802759 0.545624,-1.404828 0.727499,-2.006897 0,0 0,0 0,0 0,0.602069 0,1.404828 0,2.207586 0.181874,2.408276 0.181874,2.408276 0.181874,2.408276 0.909374,0.20069 0.909374,0.20069 0.909374,0.20069 1.273123,-5.82 1.273123,-5.82 1.273123,-5.82 -0.727499,-0.20069 -0.727499,-0.20069 -0.727499,-0.20069 z"
     id="path3526" /><path
     style="fill:#fbf4f2;fill-opacity:1;fill-rule:nonzero;stroke:none;stroke-width:0.573153"
     d="m 39.642736,66.746046 0.909373,-6.02069 -0.909373,-0.200689 -0.727499,6.020689 z"
     id="path3528" /><path
     style="fill:#fbf4f2;fill-opacity:1;fill-rule:nonzero;stroke:none;stroke-width:0.573153"
     d="m 41.279608,61.929494 c 0.181875,-0.200689 0.545625,-0.200689 0.909374,-0.200689 0.545624,0.200689 0.727499,0.602069 0.727499,1.003448 -0.181875,0.602069 -0.545624,0.802759 -0.909374,1.003448 -0.727499,0.401379 -1.273123,0.802759 -1.273123,1.605517 -0.181875,0.802759 0.36375,1.605518 1.273123,1.806207 0.36375,0.20069 0.727499,0 0.909374,0 0,-0.802758 0,-0.802758 0,-0.802758 -0.181875,0 -0.545624,0 -0.727499,0 -0.545624,0 -0.727499,-0.40138 -0.727499,-0.802759 0.181875,-0.401379 0.36375,-0.602069 0.909374,-1.003448 0.909373,-0.40138 1.273123,-0.802759 1.273123,-1.404828 0.181874,-1.204138 -0.36375,-2.006896 -1.454998,-2.207586 -0.363749,0 -0.727499,0 -0.909374,0.20069 z"
     id="path3530" /></g></svg>
