<?xml version="1.0" encoding="UTF-8" standalone="no"?>
<svg
   version="1.1"
   id="Calque_1"
   x="0px"
   y="0px"
   viewBox="0 0 80 80"
   xml:space="preserve"
   sodipodi:docname="sousoffre.svg"
   width="80"
   height="80"
   inkscape:version="1.2.1 (9c6d41e410, 2022-07-14)"
   xmlns:inkscape="http://www.inkscape.org/namespaces/inkscape"
   xmlns:sodipodi="http://sodipodi.sourceforge.net/DTD/sodipodi-0.dtd"
   xmlns="http://www.w3.org/2000/svg"
   xmlns:svg="http://www.w3.org/2000/svg"
   xmlns:rdf="http://www.w3.org/1999/02/22-rdf-syntax-ns#"
   xmlns:cc="http://creativecommons.org/ns#"
   xmlns:dc="http://purl.org/dc/elements/1.1/"><metadata
   id="metadata69"><rdf:RDF><cc:Work
       rdf:about=""><dc:format>image/svg+xml</dc:format><dc:type
         rdf:resource="http://purl.org/dc/dcmitype/StillImage" /></cc:Work></rdf:RDF></metadata><defs
   id="defs67"><clipPath
     clipPathUnits="userSpaceOnUse"
     id="clipPath81"><path
       d="M 0,80 H 80 V 0 H 0 Z"
       id="path79" /></clipPath><pattern
     id="EMFhbasepattern"
     patternUnits="userSpaceOnUse"
     width="6"
     height="6"
     x="0"
     y="0" /><pattern
     id="EMFhbasepattern-3"
     patternUnits="userSpaceOnUse"
     width="6"
     height="6"
     x="0"
     y="0" /></defs><sodipodi:namedview
   pagecolor="#ffffff"
   bordercolor="#666666"
   borderopacity="1"
   objecttolerance="10"
   gridtolerance="10"
   guidetolerance="10"
   inkscape:pageopacity="0"
   inkscape:pageshadow="2"
   inkscape:window-width="1920"
   inkscape:window-height="1017"
   id="namedview65"
   showgrid="false"
   inkscape:zoom="3.2575"
   inkscape:cx="110.66769"
   inkscape:cy="26.707598"
   inkscape:window-x="-8"
   inkscape:window-y="-8"
   inkscape:window-maximized="1"
   inkscape:current-layer="g75"
   inkscape:showpageshadow="2"
   inkscape:pagecheckerboard="0"
   inkscape:deskcolor="#d1d1d1" />
<style
   type="text/css"
   id="style2">
	.st0{clip-path:url(#SVGID_2_);}
	.st1{clip-path:url(#SVGID_4_);fill-rule:evenodd;clip-rule:evenodd;fill:#2FB6B4;}
	.st2{clip-path:url(#SVGID_4_);}
	.st3{clip-path:url(#SVGID_4_);fill:#FBF5F3;}
</style>

<g
   id="g75"
   transform="matrix(1.3333333,0,0,-1.3333333,11.899042,134.68145)"><path
     style="fill:#30b5b3;fill-opacity:1;fill-rule:evenodd;stroke:none;stroke-width:0.587517"
     d="m 22.672292,99.85984 c 15.288433,0 27.519178,-13.044827 27.519178,-29.100002 0,-16.055172 -12.230745,-29.099999 -27.519178,-29.099999 -15.4795359,0 -27.7102817,13.044827 -27.7102817,29.099999 0,16.055175 12.2307458,29.100002 27.7102817,29.100002 z"
     id="path3410" /><path
     style="fill:#1d1d1b;fill-opacity:1;fill-rule:nonzero;stroke:none;stroke-width:0.587517"
     d="m 46.369362,54.503977 c 0.191105,-0.602069 -0.191105,-1.204138 -0.955527,-1.404829 -0.382211,0 -0.955527,-0.200689 -1.337738,-0.200689 -2.48437,-0.40138 -5.159845,-1.003449 -7.644216,-1.404827 C 32.418668,50.690873 28.596559,50.088804 24.583346,49.286045 19.423501,48.282597 14.454761,47.479838 9.2949155,46.47639 6.8105454,46.075012 4.1350695,45.472943 1.6506991,45.071562 0.50406674,44.870874 -0.45146023,44.870874 -1.5980926,44.268805 c -0.7644216,0 -1.7199485,-0.200691 -2.4843701,-0.200691 -0.7644216,-0.200689 -1.3377378,0.40138 -1.5288432,1.204138 -0.3822108,2.608966 -0.9555269,5.217931 -1.3377377,7.826896 -0.3822108,2.608966 -0.7644216,5.017242 -1.1466324,7.425518 -0.3822108,1.605517 0,2.006896 1.5288432,2.207586 1.9110539,0.401379 4.0132132,0.802758 5.92426718,1.204138 0.38221078,0 0.57331618,0 0.95552697,0 -0.57331619,-0.602069 -1.14663237,-1.003448 -1.71994855,-1.605517 -0.3822108,0 -0.3822108,-0.40138 -0.3822108,-0.802759 0.1911054,-0.20069 0.3822108,-0.401379 0.5733162,-0.20069 0.57331618,0 0.57331618,0.40138 0.38221078,0.802759 0.76442158,0.802759 1.52884315,1.605517 2.48437012,2.207586 2.6754757,0.602069 5.3509516,1.003448 8.0264272,1.605517 5.7331617,1.003448 11.4663227,2.006897 17.1994847,3.010345 2.484371,0.602069 5.159846,1.003448 7.644216,1.605517 0.764422,-0.602069 1.337738,-1.003448 2.102159,-1.404827 -0.191105,-0.40138 0,-0.802759 0.382212,-0.802759 0.38221,0 0.573316,0.20069 0.573316,0.401379 0,0.40138 -0.191106,0.802759 -0.573316,0.802759 -0.382212,0.401379 -1.146633,0.602069 -1.528844,1.003448 2.10216,0.401379 4.204319,0.802759 6.306478,1.204138 1.146633,0.20069 1.911054,-0.401379 2.10216,-1.404828 0.764421,-5.017241 1.528843,-10.034482 2.48437,-14.851034 0,-0.401379 0,-0.602069 0,-1.003447 z"
     id="path3412" /><path
     style="fill:#fbf4f2;fill-opacity:1;fill-rule:nonzero;stroke:none;stroke-width:0.587517"
     d="m -1.4069872,62.330873 c 0.57331618,0.602069 1.14663236,1.003448 1.71994855,1.605517 1.14663235,1.003448 2.29326475,2.207586 3.43989725,3.211034 3.4398975,3.612414 7.0709004,7.024138 10.5107974,10.435862 1.146632,1.003449 2.102159,1.806206 3.057685,3.010344 0.382211,0.40138 0.764422,0.40138 0.955527,-0.200689 0,0 0,0 0,0 -0.191105,0 -0.382211,-0.20069 -0.573316,-0.40138 C 16.55692,78.988113 15.410288,77.783975 14.07255,76.579837 10.059337,72.566044 5.6639124,68.552252 1.6506991,64.337769 0.69517213,63.7357 -0.06924944,62.932942 -0.83367102,62.130183 -1.0247764,61.929493 -1.4069872,61.929493 -1.4069872,62.330873 Z"
     id="path3414" /><path
     style="fill:#fbf4f2;fill-opacity:1;fill-rule:nonzero;stroke:none;stroke-width:0.587517"
     d="m 36.622986,69.154321 c -0.764421,0.401379 -1.337737,0.802758 -2.102159,1.404827 -0.955526,0.602069 -1.911054,1.404828 -2.675475,2.006896 -3.439898,2.207587 -6.68869,4.615862 -9.937481,6.823448 -0.573316,0.602069 -1.337738,1.204138 -2.293265,0.602069 -0.382211,-0.200689 -0.955527,-0.200689 -1.337738,0.40138 0,0 0,0 0,0 0.764422,-0.40138 1.528843,-0.20069 2.10216,0.401379 0.38221,0.602069 0,1.003448 0,1.605517 0.573316,-0.401379 0.38221,-0.802758 0.38221,-1.204138 0.191106,-0.200689 0.191106,-0.401379 0.382211,-0.602069 4.777636,-3.211033 9.364165,-6.622758 13.950695,-9.833792 0.191105,0 0.191105,0 0.38221,-0.20069 0.382211,-0.401379 1.146632,-0.602069 1.528844,-1.003448 0.191105,-0.20069 0.38221,-0.401379 0.191105,-0.602069 -0.191105,-0.20069 -0.382211,0.20069 -0.573317,0.20069 z"
     id="path3416" /><path
     style="fill:#fbf4f2;fill-opacity:1;fill-rule:nonzero;stroke:none;stroke-width:0.587517"
     d="m 36.622986,69.154321 c 0.191106,0 0.382212,-0.40138 0.573317,-0.20069 0.191105,0.20069 0,0.401379 -0.191105,0.602069 0.38221,0 0.573316,-0.401379 0.573316,-0.802759 0,-0.200689 -0.191106,-0.401379 -0.573316,-0.401379 -0.382212,0 -0.573317,0.401379 -0.382212,0.802759 z"
     id="path3418" /><path
     style="fill:#fbf4f2;fill-opacity:1;fill-rule:nonzero;stroke:none;stroke-width:0.587517"
     d="m 20.379028,82.199148 c 0,-0.602069 -0.573317,-1.204138 -1.146633,-1.204138 -0.764421,0 -1.146632,0.602069 -1.146632,1.204138 0,0.602069 0.382211,1.204138 1.146632,1.204138 0.573316,0 1.146633,-0.602069 1.146633,-1.204138 z"
     id="path3420" /><path
     style="fill:#fbf4f2;fill-opacity:1;fill-rule:nonzero;stroke:none;stroke-width:0.587517"
     d="m -3.5091465,49.888114 c 0.1911054,-0.200689 0.7644215,-0.200689 1.1466323,-0.200689 0.7644216,0.200689 1.1466324,0.802758 1.1466324,1.404828 -0.1911054,0.602069 -0.5733162,1.003448 -1.3377378,1.404826 -0.9555269,0.40138 -1.7199485,1.204138 -1.9110539,2.006898 -0.1911054,1.404827 0.5733162,2.608965 1.9110539,2.809654 0.5733162,0 1.1466324,0 1.3377378,-0.200689 0,-1.003449 0,-1.003449 0,-1.003449 -0.3822108,0 -0.5733162,0 -1.1466324,0 -0.7644215,-0.200689 -0.9555269,-0.602069 -0.7644215,-1.204138 0,-0.602069 0.3822107,-0.802758 1.3377377,-1.204138 1.14663238,-0.602069 1.52884316,-1.404827 1.71994856,-2.207585 0.19110539,-1.605518 -0.57331618,-2.608966 -2.10215936,-3.010345 -0.5733162,0 -1.1466323,0 -1.5288431,0.200689 z"
     id="path3422" /><path
     style="fill:#fbf4f2;fill-opacity:1;fill-rule:nonzero;stroke:none;stroke-width:0.587517"
     d="M 5.0905962,54.303286 C 5.6639124,51.092253 4.7083858,49.687425 3.3706476,49.486735 1.8418048,49.286045 0.69517213,50.891563 0.31296135,53.299839 -0.06924944,55.908804 0.50406674,57.9157 2.03291,58.11639 3.7528586,58.517769 4.7083858,56.711562 5.0905962,54.303286 Z M 1.6506991,53.701217 c 0.1911057,-2.006895 0.7644219,-3.211034 1.5288433,-3.010344 0.9555271,0.20069 0.9555271,1.605517 0.5733162,3.411724 -0.1911053,1.404827 -0.5733162,3.010345 -1.5288434,2.809655 -0.7644215,0 -0.9555269,-1.605517 -0.5733161,-3.211035 z"
     id="path3424" /><path
     style="fill:#fbf4f2;fill-opacity:1;fill-rule:nonzero;stroke:none;stroke-width:0.587517"
     d="m 6.8105454,58.919149 c 0.7644215,-5.61931 0.7644215,-5.61931 0.7644215,-5.61931 0.3822108,-1.404829 0.7644216,-1.806207 1.3377378,-1.605517 0.5733162,0 0.7644216,0.602068 0.5733162,2.006895 -0.955527,5.418621 -0.955527,5.418621 -0.955527,5.418621 1.3377378,0.20069 1.3377378,0.20069 1.3377378,0.20069 0.7644213,-5.217931 0.7644213,-5.217931 0.7644213,-5.217931 0.382211,-2.207587 -0.191105,-3.411724 -1.5288429,-3.612414 -1.5288432,-0.200689 -2.4843701,0.60207 -2.6754755,2.809656 -0.9555275,5.41862 -0.9555275,5.41862 -0.9555275,5.41862 z"
     id="path3426" /><path
     style="fill:#fbf4f2;fill-opacity:1;fill-rule:nonzero;stroke:none;stroke-width:0.587517"
     d="m 12.161496,52.69777 c 0.382211,-0.200691 0.955527,-0.200691 1.337738,-0.200691 0.764422,0.200691 1.146633,0.602069 0.955527,1.404829 0,0.602069 -0.573316,1.003447 -1.146632,1.404827 -1.146633,0.401379 -1.911054,1.003448 -1.911054,2.006896 -0.191106,1.404828 0.382211,2.408276 1.911054,2.809656 0.573316,0 0.955527,0 1.146632,-0.20069 0,-1.204138 0,-1.204138 0,-1.204138 -0.191105,0.20069 -0.573316,0.20069 -0.955527,0.20069 -0.764421,-0.20069 -0.955527,-0.802759 -0.955527,-1.204138 0.191106,-0.602069 0.573316,-1.003449 1.337738,-1.404828 1.146632,-0.401379 1.719948,-1.204138 1.911054,-2.006897 0.191105,-1.605516 -0.764422,-2.809654 -2.102159,-3.010345 -0.573317,0 -1.337738,0 -1.528844,0.200691 z"
     id="path3428" /><path
     style="fill:#fbf4f2;fill-opacity:1;fill-rule:nonzero;stroke:none;stroke-width:0.587517"
     d="m 18.467974,57.112942 0.191105,-1.003449 -2.484369,-0.401379 -0.191106,1.003448 z"
     id="path3430" /><path
     style="fill:#fbf4f2;fill-opacity:1;fill-rule:nonzero;stroke:none;stroke-width:0.587517"
     d="m 24.201136,57.715011 c 0.38221,-3.211034 -0.382211,-4.615863 -1.911055,-4.816552 -1.528843,-0.40138 -2.675475,1.204138 -3.057686,3.813103 -0.382211,2.608966 0.191106,4.415173 1.911054,4.816552 1.719949,0.20069 2.675476,-1.605517 3.057687,-3.813103 z m -3.631003,-0.802759 c 0.382211,-1.806207 0.764422,-3.010344 1.719948,-3.010344 0.764423,0.200689 0.764423,1.806206 0.573317,3.411723 -0.38221,1.605518 -0.764422,3.211035 -1.719949,3.010345 -0.764421,-0.200689 -0.764421,-1.605517 -0.573316,-3.411724 z"
     id="path3432" /><path
     style="fill:#fbf4f2;fill-opacity:1;fill-rule:nonzero;stroke:none;stroke-width:0.587517"
     d="m 24.583346,61.929493 3.248792,0.602069 0.191105,-1.204138 -2.102158,-0.200689 0.38221,-2.608966 1.911054,0.40138 0.191105,-1.204138 -1.911053,-0.40138 0.573316,-3.612414 -1.146632,-0.200689 z"
     id="path3434" /><path
     style="fill:#fbf4f2;fill-opacity:1;fill-rule:nonzero;stroke:none;stroke-width:0.587517"
     d="m 28.97877,62.732252 3.248793,0.602069 0.191105,-1.204138 -2.10216,-0.401379 0.382212,-2.408276 1.911053,0.20069 0.191106,-1.003449 -1.911055,-0.401379 0.573316,-3.612413 -1.146632,-0.200691 z"
     id="path3436" /><path
     style="fill:#fbf4f2;fill-opacity:1;fill-rule:nonzero;stroke:none;stroke-width:0.587517"
     d="m 33.374195,63.334321 c 0.38221,0.200689 0.955526,0.401379 1.528842,0.401379 0.764423,0.20069 1.528844,0.20069 2.102161,-0.20069 0.38221,-0.401379 0.764421,-0.802758 0.764421,-1.605517 0.191106,-1.003448 -0.191105,-1.806206 -0.955527,-2.408275 0,0 0,0 0,0 0.764422,0 1.146633,-0.602069 1.337738,-1.605518 0.382211,-1.003448 0.764422,-1.806207 0.955527,-2.006896 -1.337738,-0.20069 -1.337738,-0.20069 -1.337738,-0.20069 -0.191105,0.20069 -0.573316,1.003448 -0.764421,1.806207 -0.382212,1.204138 -0.764422,1.404828 -1.337738,1.404828 -0.382211,-0.20069 -0.382211,-0.20069 -0.382211,-0.20069 0.573316,-3.411724 0.573316,-3.411724 0.573316,-3.411724 -1.146632,-0.20069 -1.146632,-0.20069 -1.146632,-0.20069 z m 1.911054,-3.411724 c 0.191105,0 0.191105,0 0.191105,0 0.764422,0.20069 1.146632,0.802758 1.146632,1.605517 -0.191105,0.802759 -0.573316,1.404828 -1.528842,1.204138 0,0 -0.191107,0 -0.382211,0 z"
     id="path3438" /><path
     style="fill:#fbf4f2;fill-opacity:1;fill-rule:nonzero;stroke:none;stroke-width:0.587517"
     d="m 42.547254,60.323976 -1.911054,-0.200689 0.382211,-2.809656 2.102159,0.40138 0.191106,-1.003449 -3.439897,-0.602069 -1.337738,8.428966 3.439897,0.401379 0.191105,-1.003448 -2.102159,-0.40138 0.382211,-2.408275 1.911054,0.401379 z"
     id="path3440" /></g></svg>
