<?xml version="1.0" encoding="UTF-8" standalone="no"?>
<svg
   version="1.1"
   id="Calque_1"
   x="0px"
   y="0px"
   viewBox="0 0 80 80"
   xml:space="preserve"
   sodipodi:docname="vendu.svg"
   width="80"
   height="80"
   inkscape:version="1.2.1 (9c6d41e410, 2022-07-14)"
   xmlns:inkscape="http://www.inkscape.org/namespaces/inkscape"
   xmlns:sodipodi="http://sodipodi.sourceforge.net/DTD/sodipodi-0.dtd"
   xmlns="http://www.w3.org/2000/svg"
   xmlns:svg="http://www.w3.org/2000/svg"
   xmlns:rdf="http://www.w3.org/1999/02/22-rdf-syntax-ns#"
   xmlns:cc="http://creativecommons.org/ns#"
   xmlns:dc="http://purl.org/dc/elements/1.1/"><metadata
   id="metadata69"><rdf:RDF><cc:Work
       rdf:about=""><dc:format>image/svg+xml</dc:format><dc:type
         rdf:resource="http://purl.org/dc/dcmitype/StillImage" /></cc:Work></rdf:RDF></metadata><defs
   id="defs67"><clipPath
     clipPathUnits="userSpaceOnUse"
     id="clipPath81"><path
       d="M 0,80 H 80 V 0 H 0 Z"
       id="path79" /></clipPath><pattern
     id="EMFhbasepattern"
     patternUnits="userSpaceOnUse"
     width="6"
     height="6"
     x="0"
     y="0" /></defs><sodipodi:namedview
   pagecolor="#ffffff"
   bordercolor="#666666"
   borderopacity="1"
   objecttolerance="10"
   gridtolerance="10"
   guidetolerance="10"
   inkscape:pageopacity="0"
   inkscape:pageshadow="2"
   inkscape:window-width="1920"
   inkscape:window-height="1017"
   id="namedview65"
   showgrid="false"
   inkscape:zoom="3.2575"
   inkscape:cx="110.66769"
   inkscape:cy="26.707598"
   inkscape:window-x="-8"
   inkscape:window-y="-8"
   inkscape:window-maximized="1"
   inkscape:current-layer="g75"
   inkscape:showpageshadow="2"
   inkscape:pagecheckerboard="0"
   inkscape:deskcolor="#d1d1d1" />
<style
   type="text/css"
   id="style2">
	.st0{clip-path:url(#SVGID_2_);}
	.st1{clip-path:url(#SVGID_4_);fill-rule:evenodd;clip-rule:evenodd;fill:#2FB6B4;}
	.st2{clip-path:url(#SVGID_4_);}
	.st3{clip-path:url(#SVGID_4_);fill:#FBF5F3;}
</style>

<g
   id="g75"
   transform="matrix(1.3333333,0,0,-1.3333333,11.899042,134.68145)"><path
     style="fill:#30b5b3;fill-opacity:1;fill-rule:evenodd;stroke:none;stroke-width:0.587018"
     d="m 20.929692,99.85984 c 15.262468,0 27.663223,-13.044827 27.663223,-29.100002 0,-16.055172 -12.400755,-29.099999 -27.663223,-29.099999 -15.2624684,0 -27.6632237,13.044827 -27.6632237,29.099999 0,16.055175 12.4007553,29.100002 27.6632237,29.100002 z"
     id="path3349" /><path
     style="fill:#1d1d1b;fill-opacity:1;fill-rule:nonzero;stroke:none;stroke-width:0.587018"
     d="m 45.685103,55.655226 c 0,-0.602069 -0.381562,-1.204138 -0.953904,-1.404827 -0.572343,0 -0.953905,-0.200689 -1.335466,-0.200689 C 40.724801,53.64833 38.24465,53.046261 35.573718,52.644881 31.758101,51.842123 27.751703,51.240054 23.745305,50.437296 18.785003,49.433847 13.63392,48.631089 8.6736179,47.62764 6.0026861,47.226261 3.5225354,46.624192 1.0423837,46.222813 c -1.14468509,-0.20069 -2.2893701,-0.20069 -3.2432736,-0.802759 -0.953905,0 -1.7170284,-0.20069 -2.4801517,-0.20069 -0.9539043,-0.200689 -1.5262468,0.40138 -1.5262468,1.204138 -0.5723426,2.608966 -0.9539042,5.217932 -1.3354659,7.826897 -0.3815617,2.608965 -0.9539043,5.017241 -1.335466,7.425517 -0.1907808,1.605517 0.1907809,2.006897 1.5262468,2.207586 2.0985893,0.40138 4.0063978,0.802759 6.1049871,1.204138 0.1907816,0 0.57234247,0 0.76312408,0 -0.38156244,-0.602069 -0.95390498,-1.003448 -1.52624748,-1.605517 -0.3815617,0 -0.5723426,-0.401379 -0.3815617,-0.802759 0,-0.200689 0.1907816,-0.401379 0.5723425,-0.200689 0.3815617,0 0.5723426,0.401379 0.3815617,0.802758 0.76312337,0.802759 1.52624752,1.605517 2.28937014,2.207586 2.67093256,0.602069 5.53264496,1.003449 8.20357676,1.605518 5.7234254,1.003448 11.4468504,2.006896 17.1702764,3.010344 2.480152,0.602069 4.960303,1.003448 7.631234,1.605517 0.572343,-0.602069 1.335466,-1.003448 1.907809,-1.404827 0,-0.401379 0,-0.802759 0.572342,-0.802759 0.190781,0 0.572343,0.20069 0.572343,0.40138 0,0.401379 -0.190781,0.802758 -0.572343,0.802758 -0.572342,0.401379 -1.144685,0.602069 -1.717027,1.003448 2.28937,0.40138 4.387959,0.802759 6.486549,1.204138 1.144685,0.20069 1.717027,-0.401379 1.907808,-1.404827 0.763123,-5.017241 1.717028,-10.034483 2.480151,-14.851034 0.190781,-0.40138 0.190781,-0.602069 0.190781,-1.003449 z"
     id="path3351" /><path
     style="fill:#fbf4f2;fill-opacity:1;fill-rule:nonzero;stroke:none;stroke-width:0.587018"
     d="m -2.0101098,63.482123 c 0.5723425,0.602069 1.14468504,1.003448 1.52624748,1.605517 1.33546516,1.003448 2.28937022,2.207586 3.43405512,3.211034 3.6248358,3.612414 7.0588912,7.024141 10.6837272,10.435865 0.953904,1.003448 2.098589,1.806207 3.052494,3.010345 0.381561,0.401379 0.572342,0.401379 0.953904,-0.20069 0,0 0,0 0,0 -0.381562,0 -0.572343,-0.200689 -0.572343,-0.401379 C 15.732509,80.139367 14.587824,78.935229 13.443139,77.731091 9.2459605,73.717295 5.0487814,69.703502 0.85160284,65.489019 0.08848022,64.88695 -0.67464393,64.084192 -1.4377673,63.281433 -1.819329,63.080744 -2.0101098,63.080744 -2.0101098,63.482123 Z"
     id="path3353" /><path
     style="fill:#fbf4f2;fill-opacity:1;fill-rule:nonzero;stroke:none;stroke-width:0.587018"
     d="m 35.764499,70.305571 c -0.572343,0.401379 -1.335466,0.802758 -1.907809,1.404827 -0.953904,0.602069 -1.907809,1.404828 -2.861712,2.006897 -3.243275,2.207589 -6.48655,4.615865 -9.729823,6.823451 -0.763125,0.602069 -1.335467,1.204138 -2.480152,0.602069 -0.190781,-0.20069 -0.953904,-0.20069 -1.144685,0.401379 0,0 0,0 0,0 0.763123,-0.401379 1.335466,-0.200689 1.907808,0.40138 0.381562,0.602069 0.190781,1.003448 0.190781,1.605517 0.381562,-0.40138 0.381562,-0.802759 0.381562,-1.204138 0,-0.20069 0.190781,-0.401379 0.381561,-0.602069 4.578741,-3.211034 9.348263,-6.622762 13.927003,-9.833796 0,0 0.190781,0 0.190781,-0.20069 0.572342,-0.401379 1.144685,-0.602069 1.717027,-1.003448 0,-0.200689 0.190781,-0.401379 0,-0.602069 -0.19078,-0.200689 -0.381562,0.20069 -0.572342,0.20069 z"
     id="path3355" /><path
     style="fill:#fbf4f2;fill-opacity:1;fill-rule:nonzero;stroke:none;stroke-width:0.587018"
     d="m 35.764499,70.305571 c 0.19078,0 0.381562,-0.401379 0.572342,-0.20069 0.190781,0.20069 0,0.40138 0,0.602069 0.381562,0 0.572343,-0.401379 0.572343,-0.802758 0,-0.20069 -0.381562,-0.40138 -0.572343,-0.40138 -0.572342,0 -0.572342,0.40138 -0.572342,0.802759 z"
     id="path3357" /><path
     style="fill:#fbf4f2;fill-opacity:1;fill-rule:nonzero;stroke:none;stroke-width:0.587018"
     d="m 19.548126,83.350401 c 0,-0.602069 -0.381561,-1.204138 -1.144685,-1.204138 -0.572342,0 -1.144685,0.602069 -1.144685,1.204138 0,0.602069 0.572343,1.204138 1.144685,1.204138 0.763124,0 1.144685,-0.602069 1.144685,-1.204138 z"
     id="path3359" /><path
     style="fill:#30b5b3;fill-opacity:1;fill-rule:nonzero;stroke:none;stroke-width:0.587018"
     d="m 5.6211244,51.440743 c -3.8156165,9.633104 -3.8156165,9.633104 -3.8156165,9.633104 1.7170275,0.20069 1.7170275,0.20069 1.7170275,0.20069 1.526246,-4.214483 1.526246,-4.214483 1.526246,-4.214483 0.3815617,-1.204138 0.7631238,-2.408276 1.1446855,-3.612413 0,0 0,0 0,0 0,1.204137 0,2.608965 0,3.813103 0,4.615862 0,4.615862 0,4.615862 1.7170276,0.200689 1.7170276,0.200689 1.7170276,0.200689 C 7.338152,51.641434 7.338152,51.641434 7.338152,51.641434 Z"
     id="path3361" /><path
     style="fill:#30b5b3;fill-opacity:1;fill-rule:nonzero;stroke:none;stroke-width:0.587018"
     d="m 13.443139,57.461433 -2.28937,-0.401379 0.572343,-3.211035 2.670931,0.40138 0.190781,-1.404827 -4.197178,-0.602069 -1.5262472,10.034482 3.8156172,0.602069 0.381561,-1.204138 -2.480151,-0.602069 0.381562,-2.608965 2.28937,0.401379 z"
     id="path3363" /><path
     style="fill:#30b5b3;fill-opacity:1;fill-rule:nonzero;stroke:none;stroke-width:0.587018"
     d="m 15.732509,53.046261 c -1.526246,10.235172 -1.526246,10.235172 -1.526246,10.235172 1.335465,0.20069 1.335465,0.20069 1.335465,0.20069 2.289371,-4.013793 2.289371,-4.013793 2.289371,-4.013793 0.572342,-0.802759 1.144685,-2.006897 1.717027,-3.010345 0,0 0,0 0,0 -0.381561,1.204138 -0.572342,2.809655 -0.953904,4.615862 -0.381562,2.809655 -0.381562,2.809655 -0.381562,2.809655 1.335466,0.20069 1.335466,0.20069 1.335466,0.20069 1.526247,-10.034482 1.526247,-10.034482 1.526247,-10.034482 -1.335466,-0.200691 -1.335466,-0.200691 -1.335466,-0.200691 -2.28937,4.013794 -2.28937,4.013794 -2.28937,4.013794 -0.572343,0.802758 -1.144685,2.006895 -1.526247,3.010345 -0.190781,0 -0.190781,0 -0.190781,0 0.381562,-1.204138 0.572343,-2.608966 0.953905,-4.615863 0.381561,-2.809654 0.381561,-2.809654 0.381561,-2.809654 z"
     id="path3365" /><path
     style="fill:#30b5b3;fill-opacity:1;fill-rule:nonzero;stroke:none;stroke-width:0.587018"
     d="m 21.265155,64.284882 c 0.381561,0.200689 0.953903,0.401379 1.526246,0.602068 1.144685,0.20069 2.098589,0 2.670931,-0.401379 0.953905,-0.602069 1.526248,-2.006896 1.907809,-4.013793 0.381562,-2.006896 0,-3.612414 -0.572343,-4.415172 -0.572342,-0.802759 -1.335466,-1.204138 -2.670931,-1.605518 -0.381562,0 -0.953905,0 -1.335466,0 z m 2.861712,-8.428966 c 0.19078,0 0.19078,0 0.381561,0 0.953904,0.20069 1.717028,1.404828 1.335467,4.415173 -0.381563,2.207586 -1.144685,3.612413 -2.480152,3.211034 -0.190781,0 -0.381561,0 -0.381561,0 z"
     id="path3367" /><path
     style="fill:#30b5b3;fill-opacity:1;fill-rule:nonzero;stroke:none;stroke-width:0.587018"
     d="m 29.27795,65.890399 c 1.144685,-6.622759 1.144685,-6.622759 1.144685,-6.622759 0.190781,-1.605517 0.763124,-2.006896 1.335466,-2.006896 0.763123,0.200689 1.144685,0.802758 0.763123,2.408276 -0.953904,6.622758 -0.953904,6.622758 -0.953904,6.622758 1.526246,0.20069 1.526246,0.20069 1.526246,0.20069 0.953905,-6.221379 0.953905,-6.221379 0.953905,-6.221379 0.381562,-2.608966 -0.381562,-4.013794 -1.907808,-4.415173 -1.907809,-0.20069 -2.861713,0.802759 -3.243275,3.411724 -1.144685,6.422069 -1.144685,6.422069 -1.144685,6.422069 z"
     id="path3369" /></g></svg>
